<?xml version="1.0" encoding="UTF-8"?>
<svg xmlns="http://www.w3.org/2000/svg" xmlns:xlink="http://www.w3.org/1999/xlink" width="50px" height="62px" viewBox="0 0 50 62" version="1.1">
<g id="surface1">
<path style=" stroke:none;fill-rule:nonzero;fill:rgb(100%,100%,100%);fill-opacity:1;" d="M 33.046875 7.75 C 36.796875 13.289062 36.976562 21.625 35.867188 27.964844 C 34.589844 34.257812 34.589844 34.257812 32.183594 36.167969 C 32.023438 36.308594 31.867188 36.453125 31.703125 36.601562 C 30.796875 37.179688 29.867188 37.335938 28.824219 37.511719 C 28.617188 37.546875 28.410156 37.585938 28.195312 37.621094 C 25.042969 38.144531 20.917969 38.175781 18.066406 36.472656 C 15.375 34.105469 14.441406 29.226562 14.082031 25.832031 C 13.445312 12.457031 13.445312 12.457031 17.402344 7.730469 C 17.632812 7.546875 17.867188 7.363281 18.101562 7.175781 C 18.273438 7.015625 18.445312 6.855469 18.625 6.691406 C 19.542969 6.140625 20.507812 5.9375 21.550781 5.742188 C 21.738281 5.703125 21.921875 5.667969 22.113281 5.632812 C 25.65625 5.097656 30.300781 5.234375 33.046875 7.75 Z M 29.308594 8.324219 C 28.65625 9.132812 28.65625 9.132812 28.734375 10.046875 C 29.210938 9.953125 29.683594 9.855469 30.171875 9.757812 C 30.265625 9.378906 30.363281 9 30.460938 8.609375 C 30.082031 8.515625 29.699219 8.421875 29.308594 8.324219 Z M 19.253906 9.183594 C 18.964844 10.214844 18.964844 10.214844 19.253906 11.195312 C 18.96875 11.101562 18.683594 11.003906 18.390625 10.90625 C 18.582031 11.570312 18.769531 12.234375 18.964844 12.917969 C 19.34375 12.820312 19.722656 12.726562 20.113281 12.628906 C 20.019531 11.964844 19.925781 11.304688 19.828125 10.621094 C 20.015625 10.621094 20.207031 10.621094 20.402344 10.621094 C 20.402344 10.335938 20.402344 10.050781 20.402344 9.757812 C 20.117188 9.757812 19.832031 9.757812 19.539062 9.757812 C 19.445312 9.570312 19.351562 9.378906 19.253906 9.183594 Z M 27.585938 10.332031 C 27.679688 10.523438 27.777344 10.710938 27.875 10.90625 C 28.265625 12.085938 28.320312 12.820312 28.160156 14.066406 C 27.265625 14.859375 26.78125 15.214844 25.574219 15.214844 C 25.621094 15.054688 25.664062 14.894531 25.710938 14.730469 C 25.765625 14.523438 25.824219 14.316406 25.878906 14.101562 C 25.9375 13.894531 25.992188 13.6875 26.050781 13.476562 C 26.210938 12.894531 26.210938 12.894531 25.863281 12.34375 C 25.292969 12.34375 24.722656 12.34375 24.136719 12.34375 C 23.828125 13.464844 23.875 13.921875 24.425781 14.925781 C 24.425781 15.304688 24.425781 15.683594 24.425781 16.074219 C 24.175781 16.171875 24.175781 16.171875 23.921875 16.269531 C 23.113281 16.742188 22.679688 17.335938 22.125 18.082031 C 21.050781 17.671875 20.410156 16.972656 19.644531 16.144531 C 19.269531 15.722656 19.269531 15.722656 18.679688 15.785156 C 18.679688 16.164062 18.679688 16.542969 18.679688 16.933594 C 18.9375 17.042969 19.199219 17.148438 19.46875 17.257812 C 20.53125 17.871094 20.945312 18.46875 21.550781 19.519531 C 22.332031 19.054688 23.097656 18.585938 23.851562 18.082031 C 24.136719 18.179688 24.417969 18.273438 24.710938 18.371094 C 24.859375 19.546875 24.710938 20.183594 24.046875 21.132812 C 23.207031 22.363281 22.929688 23.582031 22.609375 25.023438 C 22.445312 25.703125 22.253906 26.277344 21.964844 26.910156 C 21.632812 27.664062 21.4375 28.269531 21.265625 29.0625 C 20.898438 30.429688 20.898438 30.429688 20.113281 31 C 20.304688 31.378906 20.496094 31.757812 20.691406 32.148438 C 21.429688 31.15625 21.910156 30.304688 22.269531 29.117188 C 22.609375 28 23.101562 27.308594 23.851562 26.40625 C 23.851562 26.027344 23.851562 25.648438 23.851562 25.257812 C 24.847656 27.050781 24.726562 28.429688 24.425781 30.425781 C 25.285156 30.230469 25.285156 30.230469 25.632812 29.679688 C 25.957031 28.699219 25.855469 27.863281 25.773438 26.839844 C 25.742188 26.460938 25.714844 26.085938 25.6875 25.699219 C 25.601562 24.941406 25.503906 24.261719 25.289062 23.535156 C 25.570312 23.339844 25.855469 23.144531 26.148438 22.945312 C 26.929688 22.296875 27 22.1875 27.136719 21.113281 C 27.03125 20.125 27.03125 20.125 26.832031 19.285156 C 26.679688 17.992188 26.816406 16.714844 27.300781 15.5 C 27.859375 15.144531 27.859375 15.144531 28.449219 14.925781 C 28.636719 14.832031 28.828125 14.738281 29.023438 14.640625 C 29.195312 12.328125 29.195312 12.328125 28.160156 10.332031 C 27.972656 10.332031 27.78125 10.332031 27.585938 10.332031 Z M 18.679688 13.492188 C 18.867188 14.058594 19.058594 14.628906 19.253906 15.214844 C 19.441406 15.214844 19.632812 15.214844 19.828125 15.214844 C 19.828125 14.738281 19.828125 14.265625 19.828125 13.777344 C 20.015625 13.683594 20.207031 13.589844 20.402344 13.492188 C 19.832031 13.492188 19.265625 13.492188 18.679688 13.492188 Z M 31.609375 15.5 C 31.246094 15.796875 31.246094 15.796875 31.292969 16.441406 C 31.296875 16.707031 31.300781 16.96875 31.304688 17.238281 C 31.308594 17.636719 31.308594 17.636719 31.3125 18.039062 C 31.316406 18.242188 31.320312 18.449219 31.320312 18.65625 C 31.039062 18.65625 30.753906 18.65625 30.460938 18.65625 C 30.460938 17.710938 30.460938 16.761719 30.460938 15.785156 C 30.175781 15.785156 29.890625 15.785156 29.597656 15.785156 C 29.542969 15.964844 29.488281 16.140625 29.429688 16.320312 C 29.355469 16.554688 29.28125 16.785156 29.203125 17.023438 C 29.128906 17.253906 29.054688 17.484375 28.980469 17.722656 C 28.734375 18.371094 28.734375 18.371094 28.160156 19.230469 C 28.34375 19.265625 28.527344 19.300781 28.71875 19.339844 C 28.914062 19.398438 29.109375 19.457031 29.308594 19.519531 C 29.40625 19.707031 29.5 19.898438 29.597656 20.09375 C 30.355469 20.09375 31.113281 20.09375 31.898438 20.09375 C 31.992188 19.808594 32.085938 19.523438 32.183594 19.230469 C 32.375 19.136719 32.5625 19.042969 32.757812 18.945312 C 32.757812 18.28125 32.757812 17.617188 32.757812 16.933594 C 32.664062 16.933594 32.570312 16.933594 32.472656 16.933594 C 32.375 16.460938 32.28125 15.988281 32.183594 15.5 C 31.996094 15.5 31.804688 15.5 31.609375 15.5 Z M 19.253906 17.796875 C 19.253906 18.363281 19.253906 18.933594 19.253906 19.519531 C 19.347656 19.519531 19.441406 19.519531 19.539062 19.519531 C 19.539062 18.949219 19.539062 18.382812 19.539062 17.796875 C 19.445312 17.796875 19.351562 17.796875 19.253906 17.796875 Z M 17.242188 20.953125 C 17.242188 21.425781 17.242188 21.902344 17.242188 22.390625 C 18.949219 22.390625 20.65625 22.390625 22.414062 22.390625 C 22.414062 21.914062 22.414062 21.441406 22.414062 20.953125 C 20.707031 20.953125 19 20.953125 17.242188 20.953125 Z M 27.875 20.953125 C 27.875 21.425781 27.875 21.902344 27.875 22.390625 C 29.675781 22.390625 31.476562 22.390625 33.332031 22.390625 C 33.332031 21.914062 33.332031 21.441406 33.332031 20.953125 C 31.53125 20.953125 29.730469 20.953125 27.875 20.953125 Z M 27.300781 23.535156 C 27.300781 24.957031 27.300781 26.378906 27.300781 27.84375 C 27.679688 27.84375 28.058594 27.84375 28.449219 27.84375 C 28.449219 26.421875 28.449219 25 28.449219 23.535156 C 28.070312 23.535156 27.691406 23.535156 27.300781 23.535156 Z M 29.886719 23.824219 C 29.667969 24.34375 29.667969 24.34375 29.597656 24.972656 C 29.894531 25.527344 29.894531 25.527344 30.371094 26.011719 C 30.519531 26.183594 30.667969 26.351562 30.824219 26.527344 C 31.34375 27 31.828125 27.273438 32.472656 27.554688 C 32.058594 26.589844 31.539062 25.949219 30.746094 25.257812 C 30.558594 25.257812 30.367188 25.257812 30.171875 25.257812 C 30.171875 24.785156 30.171875 24.3125 30.171875 23.824219 C 30.078125 23.824219 29.984375 23.824219 29.886719 23.824219 Z M 30.746094 23.824219 C 30.84375 24.109375 30.9375 24.390625 31.035156 24.683594 C 31.128906 24.402344 31.222656 24.117188 31.320312 23.824219 C 31.132812 23.824219 30.941406 23.824219 30.746094 23.824219 Z M 32.183594 23.824219 C 32.089844 24.390625 31.996094 24.960938 31.898438 25.546875 C 32.179688 25.261719 32.464844 24.976562 32.757812 24.683594 C 32.664062 24.402344 32.570312 24.117188 32.472656 23.824219 C 32.375 23.824219 32.28125 23.824219 32.183594 23.824219 Z M 17.816406 24.109375 C 17.300781 24.628906 17.480469 25.386719 17.476562 26.085938 C 17.472656 26.390625 17.464844 26.699219 17.460938 27.015625 C 17.464844 27.898438 17.464844 27.898438 18.101562 28.703125 C 18.820312 28.847656 18.820312 28.847656 19.539062 28.703125 C 20.238281 27.65625 20.160156 27.0625 20.113281 25.832031 C 20.496094 25.832031 20.875 25.832031 21.265625 25.832031 C 21.167969 25.265625 21.074219 24.695312 20.976562 24.109375 C 20.503906 24.109375 20.027344 24.109375 19.539062 24.109375 C 19.195312 24.800781 19.222656 25.246094 19.234375 26.011719 C 19.238281 26.246094 19.238281 26.480469 19.242188 26.722656 C 19.246094 26.902344 19.25 27.082031 19.253906 27.269531 C 18.96875 27.269531 18.683594 27.269531 18.390625 27.269531 C 18.390625 26.226562 18.390625 25.183594 18.390625 24.109375 C 18.199219 24.109375 18.011719 24.109375 17.816406 24.109375 Z M 29.597656 26.40625 C 29.925781 27.261719 30.386719 27.792969 31.035156 28.417969 C 31.683594 29.039062 32.140625 29.570312 32.472656 30.425781 C 32.566406 30.140625 32.660156 29.859375 32.757812 29.566406 C 32.386719 28.980469 32.386719 28.980469 31.84375 28.417969 C 31.667969 28.222656 31.492188 28.027344 31.308594 27.824219 C 30.769531 27.292969 30.214844 26.847656 29.597656 26.40625 Z M 26.722656 28.703125 C 26.011719 29.984375 26.011719 29.984375 25.289062 31.285156 C 25.589844 31.648438 25.589844 31.648438 26.257812 31.644531 C 27.011719 31.632812 27.011719 31.632812 27.550781 31.234375 C 27.941406 30.710938 27.941406 30.710938 27.835938 29.976562 C 27.632812 29.183594 27.632812 29.183594 26.722656 28.703125 Z M 30.171875 28.703125 C 29.984375 28.894531 29.792969 29.082031 29.597656 29.277344 C 29.6875 29.882812 29.6875 29.882812 29.886719 30.425781 C 30.203125 29.886719 30.203125 29.886719 30.460938 29.277344 C 30.363281 29.089844 30.269531 28.898438 30.171875 28.703125 Z M 31.035156 29.566406 C 31.320312 30.714844 31.320312 30.714844 31.320312 30.714844 Z M 23.277344 32.722656 C 23.277344 32.910156 23.277344 33.101562 23.277344 33.296875 C 23.75 33.296875 24.222656 33.296875 24.710938 33.296875 C 24.710938 33.960938 24.710938 34.621094 24.710938 35.304688 C 24.996094 35.304688 25.28125 35.304688 25.574219 35.304688 C 25.574219 34.640625 25.574219 33.980469 25.574219 33.296875 C 26.144531 33.296875 26.710938 33.296875 27.300781 33.296875 C 27.300781 33.105469 27.300781 32.917969 27.300781 32.722656 C 25.855469 32.5 24.71875 32.398438 23.277344 32.722656 Z M 21.265625 34.15625 C 21.453125 34.535156 21.644531 34.914062 21.839844 35.304688 C 22.40625 35.304688 22.976562 35.304688 23.5625 35.304688 C 23.753906 34.925781 23.941406 34.546875 24.136719 34.15625 C 23.191406 34.15625 22.242188 34.15625 21.265625 34.15625 Z M 26.4375 34.15625 C 26.625 34.535156 26.816406 34.914062 27.011719 35.304688 C 27.695312 35.402344 27.695312 35.402344 28.449219 35.304688 C 28.734375 34.925781 29.015625 34.546875 29.308594 34.15625 C 28.363281 34.15625 27.414062 34.15625 26.4375 34.15625 Z M 26.4375 34.15625 "/>
<path style=" stroke:none;fill-rule:nonzero;fill:rgb(100%,100%,100%);fill-opacity:1;" d="M 0 45.925781 C 16.5 45.925781 33 45.925781 50 45.925781 C 50 48.484375 50 51.039062 50 53.675781 C 33.5 53.675781 17 53.675781 0 53.675781 C 0 51.117188 0 48.5625 0 45.925781 Z M 4.597656 47.359375 C 4.597656 48.875 4.597656 50.390625 4.597656 51.953125 C 5.363281 51.972656 5.363281 51.972656 6.140625 51.988281 C 6.429688 51.996094 6.714844 52.003906 7.011719 52.007812 C 7.804688 52.03125 7.804688 52.03125 8.332031 51.378906 C 8.246094 50.707031 8.148438 50.039062 8.046875 49.371094 C 8.171875 48.671875 8.171875 48.671875 8.332031 48.222656 C 7.769531 47.632812 7.347656 47.375 6.53125 47.304688 C 5.886719 47.308594 5.242188 47.332031 4.597656 47.359375 Z M 12.070312 47.359375 C 12.039062 47.957031 12.015625 48.558594 11.996094 49.15625 C 11.984375 49.488281 11.96875 49.820312 11.957031 50.164062 C 11.992188 51.109375 11.992188 51.109375 12.582031 51.789062 C 13.230469 52.34375 13.230469 52.34375 14.261719 52.222656 C 15.304688 52.046875 15.304688 52.046875 15.804688 51.09375 C 15.875 50.171875 15.875 50.171875 15.839844 49.171875 C 15.832031 48.664062 15.832031 48.664062 15.824219 48.148438 C 15.816406 47.886719 15.8125 47.628906 15.804688 47.359375 C 15.519531 47.359375 15.234375 47.359375 14.941406 47.359375 C 14.847656 48.6875 14.753906 50.011719 14.65625 51.378906 C 14.179688 51.378906 13.707031 51.378906 13.21875 51.378906 C 13.125 50.054688 13.027344 48.726562 12.929688 47.359375 C 12.648438 47.359375 12.363281 47.359375 12.070312 47.359375 Z M 19.828125 47.359375 C 19.828125 48.875 19.828125 50.390625 19.828125 51.953125 C 20.113281 51.953125 20.398438 51.953125 20.691406 51.953125 C 20.691406 51.386719 20.691406 50.816406 20.691406 50.230469 C 21.351562 50.230469 22.015625 50.230469 22.699219 50.230469 C 22.699219 50.800781 22.699219 51.367188 22.699219 51.953125 C 22.984375 51.953125 23.269531 51.953125 23.5625 51.953125 C 23.515625 51.679688 23.46875 51.410156 23.417969 51.128906 C 23.246094 50.046875 23.339844 49.289062 23.5625 48.222656 C 23 47.632812 22.578125 47.375 21.761719 47.304688 C 21.117188 47.308594 20.472656 47.332031 19.828125 47.359375 Z M 27.585938 47.359375 C 27.585938 48.875 27.585938 50.390625 27.585938 51.953125 C 28.722656 51.953125 29.863281 51.953125 31.035156 51.953125 C 31.035156 51.765625 31.035156 51.574219 31.035156 51.378906 C 30.085938 51.378906 29.136719 51.378906 28.160156 51.378906 C 28.160156 50.90625 28.160156 50.433594 28.160156 49.945312 C 29.015625 49.945312 29.867188 49.945312 30.746094 49.945312 C 30.746094 49.753906 30.746094 49.566406 30.746094 49.371094 C 29.894531 49.371094 29.039062 49.371094 28.160156 49.371094 C 28.160156 48.898438 28.160156 48.421875 28.160156 47.933594 C 29.015625 47.933594 29.867188 47.933594 30.746094 47.933594 C 30.746094 47.746094 30.746094 47.554688 30.746094 47.359375 C 29.703125 47.359375 28.660156 47.359375 27.585938 47.359375 Z M 35.917969 47.359375 C 35.683594 47.910156 35.453125 48.460938 35.21875 49.011719 C 35.089844 49.316406 34.960938 49.625 34.824219 49.941406 C 34.558594 50.617188 34.34375 51.246094 34.195312 51.953125 C 34.480469 51.953125 34.765625 51.953125 35.058594 51.953125 C 35.058594 51.667969 35.058594 51.386719 35.058594 51.09375 C 35.816406 51.09375 36.574219 51.09375 37.355469 51.09375 C 37.449219 51.375 37.546875 51.660156 37.644531 51.953125 C 37.832031 51.953125 38.023438 51.953125 38.21875 51.953125 C 38.085938 51.457031 37.957031 50.960938 37.824219 50.464844 C 37.75 50.1875 37.675781 49.910156 37.601562 49.628906 C 37.371094 48.847656 37.097656 48.109375 36.78125 47.359375 C 36.496094 47.359375 36.210938 47.359375 35.917969 47.359375 Z M 41.667969 47.359375 C 41.636719 48.011719 41.613281 48.664062 41.59375 49.316406 C 41.582031 49.679688 41.566406 50.042969 41.554688 50.417969 C 41.570312 51.386719 41.570312 51.386719 42.191406 51.941406 C 43.070312 52.363281 43.617188 52.214844 44.539062 51.953125 C 45.21875 51.402344 45.21875 51.402344 45.171875 50.445312 C 45.164062 50.078125 45.15625 49.710938 45.152344 49.335938 C 45.144531 48.964844 45.140625 48.597656 45.136719 48.21875 C 45.128906 47.9375 45.121094 47.652344 45.113281 47.359375 C 44.925781 47.359375 44.734375 47.359375 44.539062 47.359375 C 44.445312 48.59375 44.351562 49.824219 44.253906 51.09375 C 43.777344 51.1875 43.304688 51.28125 42.816406 51.378906 C 42.429688 50.605469 42.429688 49.910156 42.367188 49.046875 C 42.34375 48.734375 42.320312 48.417969 42.292969 48.09375 C 42.277344 47.851562 42.257812 47.609375 42.242188 47.359375 C 42.050781 47.359375 41.863281 47.359375 41.667969 47.359375 Z M 41.667969 47.359375 "/>
<path style=" stroke:none;fill-rule:nonzero;fill:rgb(100%,100%,100%);fill-opacity:1;" d="M 0 54.535156 C 16.5 54.535156 33 54.535156 50 54.535156 C 50 57 50 59.460938 50 62 C 33.5 62 17 62 0 62 C 0 59.539062 0 57.074219 0 54.535156 Z M 4.308594 55.972656 C 4.785156 57.488281 5.257812 59.003906 5.746094 60.566406 C 6.125 60.46875 6.503906 60.375 6.898438 60.277344 C 7.289062 59.511719 7.289062 59.511719 7.542969 58.589844 C 7.6875 58.128906 7.6875 58.128906 7.835938 57.660156 C 8.082031 56.835938 8.082031 56.835938 8.046875 55.972656 C 7.855469 55.972656 7.667969 55.972656 7.472656 55.972656 C 7.324219 56.378906 7.183594 56.785156 7.039062 57.191406 C 6.960938 57.417969 6.878906 57.644531 6.796875 57.878906 C 6.558594 58.621094 6.558594 58.621094 6.609375 59.703125 C 6.417969 59.703125 6.230469 59.703125 6.035156 59.703125 C 5.996094 59.507812 5.957031 59.308594 5.917969 59.105469 C 5.867188 58.847656 5.816406 58.589844 5.765625 58.324219 C 5.714844 58.066406 5.664062 57.808594 5.613281 57.546875 C 5.464844 56.800781 5.464844 56.800781 5.171875 55.972656 C 4.886719 55.972656 4.601562 55.972656 4.308594 55.972656 Z M 11.496094 55.972656 C 11.496094 57.488281 11.496094 59.003906 11.496094 60.566406 C 12.632812 60.566406 13.769531 60.566406 14.941406 60.566406 C 14.941406 60.375 14.941406 60.1875 14.941406 59.992188 C 13.996094 59.992188 13.046875 59.992188 12.070312 59.992188 C 12.070312 59.515625 12.070312 59.042969 12.070312 58.554688 C 12.828125 58.554688 13.585938 58.554688 14.367188 58.554688 C 14.367188 58.367188 14.367188 58.175781 14.367188 57.980469 C 13.609375 57.980469 12.851562 57.980469 12.070312 57.980469 C 12.070312 57.507812 12.070312 57.035156 12.070312 56.546875 C 12.921875 56.546875 13.777344 56.546875 14.65625 56.546875 C 14.65625 56.355469 14.65625 56.167969 14.65625 55.972656 C 13.613281 55.972656 12.570312 55.972656 11.496094 55.972656 Z M 18.390625 55.972656 C 18.390625 57.488281 18.390625 59.003906 18.390625 60.566406 C 18.582031 60.566406 18.769531 60.566406 18.964844 60.566406 C 18.964844 59.902344 18.964844 59.238281 18.964844 58.554688 C 19.628906 58.746094 20.292969 58.933594 20.976562 59.128906 C 21.070312 59.601562 21.167969 60.078125 21.265625 60.566406 C 21.453125 60.566406 21.644531 60.566406 21.839844 60.566406 C 21.839844 60.296875 21.839844 60.03125 21.839844 59.757812 C 21.839844 57.980469 21.839844 57.980469 21.875 57.246094 C 21.914062 56.492188 21.914062 56.492188 21.265625 55.972656 C 20.5625 55.902344 20.5625 55.902344 19.792969 55.9375 C 19.328125 55.949219 18.867188 55.960938 18.390625 55.972656 Z M 25.574219 55.972656 C 25.574219 57.488281 25.574219 59.003906 25.574219 60.566406 C 25.859375 60.566406 26.144531 60.566406 26.4375 60.566406 C 26.4375 59.050781 26.4375 57.535156 26.4375 55.972656 C 26.152344 55.972656 25.867188 55.972656 25.574219 55.972656 Z M 29.308594 55.972656 C 29.308594 56.160156 29.308594 56.351562 29.308594 56.546875 C 29.785156 56.546875 30.257812 56.546875 30.746094 56.546875 C 30.746094 57.871094 30.746094 59.199219 30.746094 60.566406 C 31.03125 60.566406 31.316406 60.566406 31.609375 60.566406 C 31.609375 59.238281 31.609375 57.914062 31.609375 56.546875 C 32.082031 56.546875 32.558594 56.546875 33.046875 56.546875 C 33.046875 56.355469 33.046875 56.167969 33.046875 55.972656 C 31.8125 55.972656 30.582031 55.972656 29.308594 55.972656 Z M 36.78125 55.972656 C 36.164062 57.488281 35.550781 59 35.058594 60.566406 C 35.34375 60.566406 35.625 60.566406 35.917969 60.566406 C 36.015625 60.375 36.109375 60.1875 36.207031 59.992188 C 36.871094 59.992188 37.535156 59.992188 38.21875 59.992188 C 38.3125 60.179688 38.40625 60.371094 38.503906 60.566406 C 38.789062 60.46875 39.074219 60.375 39.367188 60.277344 C 39.15625 59.613281 38.941406 58.949219 38.722656 58.285156 C 38.664062 58.097656 38.601562 57.90625 38.542969 57.714844 C 38.34375 57.09375 38.34375 57.09375 37.929688 56.257812 C 37.339844 55.957031 37.339844 55.957031 36.78125 55.972656 Z M 42.257812 56.332031 C 41.910156 56.816406 41.910156 56.816406 41.917969 57.40625 C 42.445312 58.339844 43.277344 58.5 44.253906 58.84375 C 44.441406 58.84375 44.632812 58.84375 44.828125 58.84375 C 44.828125 59.222656 44.828125 59.601562 44.828125 59.992188 C 43.832031 59.859375 42.910156 59.734375 41.953125 59.417969 C 42.144531 59.796875 42.332031 60.175781 42.527344 60.566406 C 44.046875 60.699219 44.046875 60.699219 45.421875 60.207031 C 45.742188 59.714844 45.742188 59.714844 45.644531 59.136719 C 45.449219 58.503906 45.449219 58.503906 44.808594 58.191406 C 44.453125 58.050781 44.453125 58.050781 44.089844 57.910156 C 43.855469 57.8125 43.617188 57.71875 43.371094 57.617188 C 43.1875 57.546875 43.003906 57.480469 42.816406 57.40625 C 42.816406 57.21875 42.816406 57.027344 42.816406 56.832031 C 43.777344 56.8125 44.484375 56.816406 45.402344 57.121094 C 45.308594 56.835938 45.210938 56.550781 45.113281 56.257812 C 44.148438 55.777344 43.175781 55.738281 42.257812 56.332031 Z M 42.257812 56.332031 "/>
<path style=" stroke:none;fill-rule:nonzero;fill:rgb(100%,100%,100%);fill-opacity:1;" d="M 25.019531 -0.0703125 C 25.347656 -0.078125 25.679688 -0.0820312 26.019531 -0.0898438 C 29.605469 -0.105469 32.691406 0.472656 35.632812 2.582031 C 35.816406 2.710938 35.996094 2.835938 36.1875 2.96875 C 40.253906 6.085938 41.816406 12.390625 42.503906 17.214844 C 43.441406 24.371094 42.21875 32.636719 37.96875 38.652344 C 35.574219 41.542969 32.3125 42.960938 28.636719 43.363281 C 28.390625 43.386719 28.144531 43.410156 27.890625 43.433594 C 27.628906 43.457031 27.371094 43.480469 27.101562 43.503906 C 22.359375 43.867188 17.589844 43.269531 13.792969 40.183594 C 9.082031 35.972656 7.882812 28.507812 7.390625 22.542969 C 7.207031 16.355469 8.847656 8.878906 12.878906 4.019531 C 16.230469 0.539062 20.40625 -0.0507812 25.019531 -0.0703125 Z M 13.695312 4.816406 C 9.199219 10.851562 8.402344 19.660156 9.394531 26.898438 C 10.050781 30.945312 11.144531 35.234375 13.792969 38.464844 C 13.941406 38.644531 14.085938 38.828125 14.238281 39.011719 C 16.292969 41.304688 19.359375 42.324219 22.375 42.539062 C 23.28125 42.570312 24.183594 42.574219 25.089844 42.570312 C 25.542969 42.578125 25.542969 42.578125 26.003906 42.585938 C 29.664062 42.585938 32.902344 41.800781 35.6875 39.34375 C 40.050781 34.84375 41.246094 27.175781 41.195312 21.101562 C 41.039062 15.40625 39.789062 8.414062 35.867188 4.035156 C 32.800781 1.277344 28.996094 0.75 25.035156 0.769531 C 24.730469 0.773438 24.425781 0.773438 24.113281 0.777344 C 20.078125 0.839844 16.539062 1.773438 13.695312 4.816406 Z M 13.695312 4.816406 "/>
<path style=" stroke:none;fill-rule:nonzero;fill:rgb(100%,100%,100%);fill-opacity:1;" d="M 35.6875 4.863281 C 36.375 5.265625 36.695312 5.605469 37.070312 6.316406 C 36.980469 7.105469 36.980469 7.105469 36.78125 7.75 C 36.402344 7.84375 36.023438 7.9375 35.632812 8.035156 C 35.632812 8.226562 35.632812 8.414062 35.632812 8.609375 C 35.0625 8.894531 35.0625 8.894531 34.484375 9.183594 C 34.285156 8.46875 34.195312 7.929688 34.195312 7.175781 C 33.816406 7.269531 33.4375 7.367188 33.046875 7.464844 C 33.117188 6.480469 33.421875 6.226562 34.140625 5.507812 C 35.058594 4.878906 35.058594 4.878906 35.6875 4.863281 Z M 35.34375 6.027344 C 35.34375 6.3125 35.34375 6.597656 35.34375 6.890625 C 35.535156 6.890625 35.722656 6.890625 35.917969 6.890625 C 35.824219 6.605469 35.730469 6.320312 35.632812 6.027344 C 35.539062 6.027344 35.441406 6.027344 35.34375 6.027344 Z M 35.34375 6.027344 "/>
<path style=" stroke:none;fill-rule:nonzero;fill:rgb(100%,100%,100%);fill-opacity:1;" d="M 31.609375 37.601562 C 32.199219 38.589844 32.488281 39.128906 32.382812 40.292969 C 32.316406 40.542969 32.25 40.789062 32.183594 41.046875 C 30.246094 41.371094 30.246094 41.371094 29.597656 41.046875 C 29.480469 40.390625 29.480469 40.390625 29.417969 39.59375 C 29.398438 39.328125 29.375 39.066406 29.351562 38.792969 C 29.339844 38.589844 29.324219 38.386719 29.308594 38.175781 C 30.238281 37.558594 30.542969 37.542969 31.609375 37.601562 Z M 30.460938 38.464844 C 30.554688 38.652344 30.648438 38.84375 30.746094 39.035156 C 30.84375 38.847656 30.9375 38.65625 31.035156 38.464844 C 30.84375 38.464844 30.65625 38.464844 30.460938 38.464844 Z M 30.746094 39.898438 C 30.746094 40.085938 30.746094 40.277344 30.746094 40.472656 C 30.9375 40.472656 31.125 40.472656 31.320312 40.472656 C 31.320312 40.28125 31.320312 40.09375 31.320312 39.898438 C 31.132812 39.898438 30.941406 39.898438 30.746094 39.898438 Z M 30.746094 39.898438 "/>
<path style=" stroke:none;fill-rule:nonzero;fill:rgb(100%,100%,100%);fill-opacity:1;" d="M 22.84375 38.425781 C 23.851562 38.464844 23.851562 38.464844 24.136719 38.75 C 24.160156 39.234375 24.160156 39.71875 24.15625 40.203125 C 24.152344 40.46875 24.152344 40.730469 24.148438 41.003906 C 24.144531 41.207031 24.140625 41.410156 24.136719 41.621094 C 23.347656 41.941406 23.347656 41.941406 22.414062 42.195312 C 21.78125 41.921875 21.78125 41.921875 21.265625 41.621094 C 21.304688 41.148438 21.347656 40.675781 21.390625 40.203125 C 21.414062 39.941406 21.4375 39.675781 21.460938 39.40625 C 21.609375 38.34375 21.714844 38.46875 22.84375 38.425781 Z M 22.414062 40.472656 C 22.507812 40.757812 22.601562 41.039062 22.699219 41.332031 C 22.796875 41.050781 22.890625 40.765625 22.988281 40.472656 C 22.800781 40.472656 22.609375 40.472656 22.414062 40.472656 Z M 22.414062 40.472656 "/>
<path style=" stroke:none;fill-rule:nonzero;fill:rgb(100%,100%,100%);fill-opacity:1;" d="M 10.957031 19.738281 C 11.1875 19.742188 11.417969 19.746094 11.65625 19.75 C 12.003906 19.753906 12.003906 19.753906 12.359375 19.757812 C 12.929688 19.804688 12.929688 19.804688 13.21875 20.09375 C 13.257812 20.953125 13.230469 21.8125 13.21875 22.675781 C 12.082031 22.675781 10.941406 22.675781 9.769531 22.675781 C 9.714844 20.9375 9.714844 20.9375 9.769531 20.378906 C 10.34375 19.804688 10.34375 19.804688 10.957031 19.738281 Z M 12.070312 20.667969 C 11.972656 21.046875 11.878906 21.425781 11.78125 21.816406 C 11.972656 21.816406 12.160156 21.816406 12.355469 21.816406 C 12.261719 21.4375 12.167969 21.058594 12.070312 20.667969 Z M 10.632812 20.953125 C 10.632812 21.238281 10.632812 21.523438 10.632812 21.816406 C 10.820312 21.816406 11.011719 21.816406 11.207031 21.816406 C 11.207031 21.53125 11.207031 21.246094 11.207031 20.953125 C 11.015625 20.953125 10.828125 20.953125 10.632812 20.953125 Z M 10.632812 20.953125 "/>
<path style=" stroke:none;fill-rule:nonzero;fill:rgb(100%,100%,100%);fill-opacity:1;" d="M 13.503906 5.742188 C 14.367188 6.027344 14.367188 6.027344 14.65625 6.601562 C 14.941406 6.695312 15.222656 6.792969 15.515625 6.890625 C 15.515625 7.171875 15.515625 7.457031 15.515625 7.75 C 15.613281 7.5625 15.707031 7.371094 15.804688 7.175781 C 16.089844 7.175781 16.375 7.175781 16.667969 7.175781 C 16.515625 8.273438 16.238281 8.914062 15.515625 9.757812 C 14.335938 9.34375 13.382812 8.75 12.355469 8.035156 C 12.734375 7.277344 13.113281 6.519531 13.503906 5.742188 Z M 14.082031 6.890625 C 14.082031 7.75 14.082031 7.75 14.082031 7.75 Z M 14.082031 6.890625 "/>
<path style=" stroke:none;fill-rule:nonzero;fill:rgb(100%,100%,100%);fill-opacity:1;" d="M 11.78125 10.332031 C 12.429688 10.421875 12.429688 10.421875 13.21875 10.621094 C 13.792969 10.71875 14.367188 10.8125 14.941406 10.90625 C 14.847656 11.285156 14.753906 11.664062 14.65625 12.054688 C 14.277344 11.960938 13.898438 11.867188 13.503906 11.769531 C 13.503906 11.957031 13.503906 12.148438 13.503906 12.34375 C 13.789062 12.53125 14.074219 12.722656 14.367188 12.917969 C 14.367188 13.199219 14.367188 13.484375 14.367188 13.777344 C 13.902344 13.6875 13.433594 13.597656 12.96875 13.507812 C 12.707031 13.457031 12.445312 13.410156 12.179688 13.355469 C 11.496094 13.203125 11.496094 13.203125 10.917969 12.917969 C 11.136719 10.980469 11.136719 10.980469 11.78125 10.332031 Z M 12.070312 11.480469 C 12.164062 11.765625 12.257812 12.050781 12.355469 12.34375 C 12.449219 12.058594 12.546875 11.773438 12.644531 11.480469 C 12.453125 11.480469 12.265625 11.480469 12.070312 11.480469 Z M 12.070312 11.480469 "/>
<path style=" stroke:none;fill-rule:nonzero;fill:rgb(100%,100%,100%);fill-opacity:1;" d="M 37.355469 19.804688 C 37.738281 19.898438 38.125 19.996094 38.503906 20.09375 C 38.753906 20.039062 39.003906 19.984375 39.261719 19.929688 C 39.484375 19.890625 39.710938 19.847656 39.941406 19.804688 C 40.132812 19.996094 40.320312 20.183594 40.515625 20.378906 C 40.410156 21.421875 40.410156 21.421875 40.230469 22.390625 C 39.058594 22.699219 38.253906 22.664062 37.070312 22.390625 C 36.78125 22.101562 36.78125 22.101562 36.726562 21.257812 C 36.78125 20.378906 36.78125 20.378906 37.355469 19.804688 Z M 37.929688 20.667969 C 37.835938 20.949219 37.742188 21.234375 37.644531 21.527344 C 37.832031 21.527344 38.023438 21.527344 38.21875 21.527344 C 38.125 21.242188 38.027344 20.960938 37.929688 20.667969 Z M 39.367188 20.667969 C 39.273438 20.949219 39.179688 21.234375 39.082031 21.527344 C 39.269531 21.527344 39.460938 21.527344 39.65625 21.527344 C 39.558594 21.242188 39.464844 20.960938 39.367188 20.667969 Z M 39.367188 20.667969 "/>
<path style=" stroke:none;fill-rule:nonzero;fill:rgb(100%,100%,100%);fill-opacity:1;" d="M 31.035156 2.007812 C 31.792969 2.292969 32.550781 2.578125 33.332031 2.871094 C 33.332031 3.15625 33.332031 3.4375 33.332031 3.730469 C 32.953125 3.730469 32.574219 3.730469 32.183594 3.730469 C 32.46875 3.921875 32.753906 4.109375 33.046875 4.304688 C 32.949219 4.496094 32.855469 4.683594 32.757812 4.878906 C 32.285156 4.878906 31.808594 4.878906 31.320312 4.878906 C 31.699219 5.070312 32.082031 5.257812 32.472656 5.453125 C 32.472656 5.738281 32.472656 6.023438 32.472656 6.316406 C 31.511719 6.15625 30.738281 5.925781 29.886719 5.453125 C 30.042969 4.144531 30.402344 3.164062 31.035156 2.007812 Z M 31.035156 2.007812 "/>
<path style=" stroke:none;fill-rule:nonzero;fill:rgb(100%,100%,100%);fill-opacity:1;" d="M 22.125 1.433594 C 22.503906 1.53125 22.886719 1.625 23.277344 1.722656 C 23.347656 2.132812 23.410156 2.546875 23.472656 2.960938 C 23.511719 3.191406 23.546875 3.417969 23.585938 3.65625 C 23.5625 4.304688 23.5625 4.304688 23.195312 4.816406 C 22.46875 5.332031 21.84375 5.222656 20.976562 5.167969 C 20.289062 4.070312 20.242188 2.984375 20.113281 1.722656 C 20.496094 1.722656 20.875 1.722656 21.265625 1.722656 C 21.316406 1.964844 21.316406 1.964844 21.371094 2.214844 C 21.417969 2.425781 21.464844 2.636719 21.515625 2.851562 C 21.5625 3.0625 21.609375 3.273438 21.65625 3.488281 C 21.789062 4.078125 21.789062 4.078125 22.414062 4.304688 C 22.320312 3.359375 22.222656 2.410156 22.125 1.433594 Z M 22.125 1.433594 "/>
<path style=" stroke:none;fill-rule:nonzero;fill:rgb(100%,100%,100%);fill-opacity:1;" d="M 10.34375 14.925781 C 10.757812 14.957031 11.171875 14.996094 11.585938 15.035156 C 11.929688 15.0625 11.929688 15.0625 12.28125 15.09375 C 12.929688 15.214844 12.929688 15.214844 13.792969 15.785156 C 13.867188 16.671875 13.90625 17.28125 13.503906 18.082031 C 13.09375 18.089844 12.679688 18.097656 12.265625 18.101562 C 11.921875 18.105469 11.921875 18.105469 11.570312 18.113281 C 10.917969 18.082031 10.917969 18.082031 10.058594 17.796875 C 10.058594 17.511719 10.058594 17.226562 10.058594 16.933594 C 10.910156 16.933594 11.765625 16.933594 12.644531 16.933594 C 12.738281 16.746094 12.832031 16.554688 12.929688 16.359375 C 12.171875 16.265625 11.414062 16.171875 10.632812 16.074219 C 10.539062 15.695312 10.441406 15.316406 10.34375 14.925781 Z M 10.34375 14.925781 "/>
<path style=" stroke:none;fill-rule:nonzero;fill:rgb(100%,100%,100%);fill-opacity:1;" d="M 26.722656 38.425781 C 27.585938 38.464844 27.585938 38.464844 27.875 38.75 C 27.910156 39.609375 27.910156 39.609375 27.875 40.472656 C 27.777344 40.566406 27.683594 40.660156 27.585938 40.757812 C 27.777344 40.855469 27.964844 40.949219 28.160156 41.046875 C 28.160156 41.332031 28.160156 41.613281 28.160156 41.90625 C 27.210938 42.003906 26.265625 42.097656 25.289062 42.195312 C 25.40625 40.808594 25.996094 40.234375 27.011719 39.324219 C 26.726562 39.511719 26.441406 39.703125 26.148438 39.898438 C 25.863281 39.898438 25.582031 39.898438 25.289062 39.898438 C 25.609375 38.472656 25.609375 38.472656 26.722656 38.425781 Z M 26.722656 38.425781 "/>
<path style=" stroke:none;fill-rule:nonzero;fill:rgb(100%,100%,100%);fill-opacity:1;" d="M 16.953125 2.871094 C 17.988281 3.460938 18.945312 4.074219 19.828125 4.878906 C 19.828125 5.164062 19.828125 5.449219 19.828125 5.742188 C 19.164062 5.742188 18.5 5.742188 17.816406 5.742188 C 17.816406 6.121094 17.816406 6.5 17.816406 6.890625 C 17.53125 6.984375 17.246094 7.078125 16.953125 7.175781 C 16.84375 6.566406 16.734375 5.957031 16.628906 5.347656 C 16.570312 5.007812 16.511719 4.667969 16.449219 4.316406 C 16.425781 4.027344 16.402344 3.742188 16.378906 3.445312 C 16.570312 3.253906 16.757812 3.066406 16.953125 2.871094 Z M 16.953125 2.871094 "/>
<path style=" stroke:none;fill-rule:nonzero;fill:rgb(100%,100%,100%);fill-opacity:1;" d="M 36.496094 15.5 C 36.957031 15.53125 37.417969 15.570312 37.878906 15.609375 C 38.132812 15.628906 38.390625 15.648438 38.65625 15.667969 C 39.367188 15.785156 39.367188 15.785156 40.230469 16.359375 C 40.230469 16.644531 40.230469 16.929688 40.230469 17.222656 C 39.761719 17.460938 39.296875 17.703125 38.828125 17.941406 C 38.570312 18.074219 38.308594 18.207031 38.042969 18.34375 C 37.355469 18.65625 37.355469 18.65625 36.78125 18.65625 C 36.78125 18.277344 36.78125 17.898438 36.78125 17.507812 C 36.972656 17.507812 37.160156 17.507812 37.355469 17.507812 C 37.261719 17.226562 37.167969 16.941406 37.070312 16.648438 C 36.878906 16.554688 36.691406 16.457031 36.496094 16.359375 C 36.496094 16.078125 36.496094 15.792969 36.496094 15.5 Z M 36.496094 15.5 "/>
<path style=" stroke:none;fill-rule:nonzero;fill:rgb(100%,100%,100%);fill-opacity:1;" d="M 26.4375 1.433594 C 26.816406 1.53125 27.195312 1.625 27.585938 1.722656 C 27.679688 2.101562 27.777344 2.480469 27.875 2.871094 C 28.0625 2.398438 28.253906 1.921875 28.449219 1.433594 C 28.828125 1.625 29.207031 1.8125 29.597656 2.007812 C 29.125 2.957031 28.648438 3.902344 28.160156 4.878906 C 27.78125 4.878906 27.402344 4.878906 27.011719 4.878906 C 26.683594 3.65625 26.4375 2.707031 26.4375 1.433594 Z M 26.4375 1.433594 "/>
<path style=" stroke:none;fill-rule:nonzero;fill:rgb(100%,100%,100%);fill-opacity:1;" d="M 38.21875 11.480469 C 38.503906 11.480469 38.789062 11.480469 39.082031 11.480469 C 39.542969 12.488281 39.71875 13.246094 39.65625 14.351562 C 39.371094 14.351562 39.085938 14.351562 38.792969 14.351562 C 38.792969 14.066406 38.792969 13.785156 38.792969 13.492188 C 38.53125 13.585938 38.273438 13.679688 38.003906 13.777344 C 37.070312 14.066406 37.070312 14.066406 35.917969 14.066406 C 36.015625 13.6875 36.109375 13.308594 36.207031 12.917969 C 37.203125 12.773438 37.203125 12.773438 38.21875 12.628906 C 38.21875 12.25 38.21875 11.871094 38.21875 11.480469 Z M 38.21875 11.480469 "/>
<path style=" stroke:none;fill-rule:nonzero;fill:rgb(100%,100%,100%);fill-opacity:1;" d="M 18.390625 37.890625 C 19.054688 37.890625 19.71875 37.890625 20.402344 37.890625 C 20.257812 39.128906 20.058594 40.195312 19.539062 41.332031 C 19.160156 41.238281 18.78125 41.144531 18.390625 41.046875 C 18.582031 40.289062 18.769531 39.53125 18.964844 38.75 C 18.777344 38.75 18.585938 38.75 18.390625 38.75 C 18.390625 38.464844 18.390625 38.183594 18.390625 37.890625 Z M 18.390625 37.890625 "/>
<path style=" stroke:none;fill-rule:nonzero;fill:rgb(100%,100%,100%);fill-opacity:1;" d="M 38.503906 9.472656 C 38.21875 10.332031 38.21875 10.332031 37.644531 10.667969 C 37.414062 10.765625 37.183594 10.863281 36.941406 10.960938 C 36.710938 11.058594 36.480469 11.160156 36.242188 11.261719 C 35.632812 11.480469 35.632812 11.480469 35.058594 11.480469 C 35.058594 11.101562 35.058594 10.722656 35.058594 10.332031 C 35.414062 10.132812 35.773438 9.933594 36.136719 9.742188 C 36.433594 9.578125 36.433594 9.578125 36.742188 9.410156 C 37.460938 9.148438 37.796875 9.21875 38.503906 9.472656 Z M 38.503906 9.472656 "/>
<path style=" stroke:none;fill-rule:nonzero;fill:rgb(100%,100%,100%);fill-opacity:1;" d="M 18.964844 56.546875 C 19.628906 56.546875 20.292969 56.546875 20.976562 56.546875 C 21.070312 57.019531 21.167969 57.492188 21.265625 57.980469 C 20.503906 58.078125 19.746094 58.171875 18.964844 58.269531 C 18.964844 57.699219 18.964844 57.132812 18.964844 56.546875 Z M 18.964844 56.546875 "/>
<path style=" stroke:none;fill-rule:nonzero;fill:rgb(100%,100%,100%);fill-opacity:1;" d="M 20.691406 47.933594 C 21.257812 47.933594 21.828125 47.933594 22.414062 47.933594 C 22.71875 48.472656 22.71875 48.472656 22.988281 49.082031 C 22.894531 49.273438 22.800781 49.460938 22.699219 49.65625 C 22.039062 49.65625 21.375 49.65625 20.691406 49.65625 C 20.691406 49.089844 20.691406 48.519531 20.691406 47.933594 Z M 20.691406 47.933594 "/>
<path style=" stroke:none;fill-rule:nonzero;fill:rgb(100%,100%,100%);fill-opacity:1;" d="M 5.460938 49.945312 C 6.125 49.945312 6.789062 49.945312 7.472656 49.945312 C 7.632812 50.5 7.632812 50.5 7.757812 51.09375 C 7.472656 51.378906 7.472656 51.378906 6.449219 51.398438 C 6.121094 51.390625 5.796875 51.386719 5.460938 51.378906 C 5.460938 50.90625 5.460938 50.433594 5.460938 49.945312 Z M 5.460938 49.945312 "/>
<path style=" stroke:none;fill-rule:nonzero;fill:rgb(100%,100%,100%);fill-opacity:1;" d="M 5.460938 47.933594 C 6.027344 47.933594 6.597656 47.933594 7.183594 47.933594 C 7.277344 48.410156 7.375 48.882812 7.472656 49.371094 C 6.808594 49.371094 6.144531 49.371094 5.460938 49.371094 C 5.460938 48.898438 5.460938 48.421875 5.460938 47.933594 Z M 5.460938 47.933594 "/>
<path style=" stroke:none;fill-rule:nonzero;fill:rgb(100%,100%,100%);fill-opacity:1;" d="M 37.070312 56.832031 C 37.257812 56.929688 37.449219 57.023438 37.644531 57.121094 C 37.761719 57.785156 37.859375 58.457031 37.929688 59.128906 C 37.457031 59.128906 36.984375 59.128906 36.496094 59.128906 C 36.746094 57.15625 36.746094 57.15625 37.070312 56.832031 Z M 37.070312 56.832031 "/>
<path style=" stroke:none;fill-rule:nonzero;fill:rgb(100%,100%,100%);fill-opacity:1;" d="M 36.207031 48.222656 C 36.765625 49.058594 36.910156 49.550781 37.070312 50.519531 C 36.5 50.519531 35.929688 50.519531 35.34375 50.519531 C 35.628906 49.761719 35.914062 49.003906 36.207031 48.222656 Z M 36.207031 48.222656 "/>
</g>
</svg>
