<?xml version="1.0" encoding="UTF-8"?>
<svg xmlns="http://www.w3.org/2000/svg" xmlns:xlink="http://www.w3.org/1999/xlink" width="20px" height="25px" viewBox="0 0 20 24" version="1.1">
<g id="surface1">
<path style=" stroke:none;fill-rule:nonzero;fill:rgb(100%,100%,100%);fill-opacity:1;" d="M 13.21875 3 C 14.71875 5.144531 14.789062 8.371094 14.347656 10.824219 C 13.835938 13.261719 13.835938 13.261719 12.875 14 C 12.808594 14.054688 12.746094 14.109375 12.679688 14.167969 C 12.320312 14.390625 11.945312 14.453125 11.53125 14.519531 C 11.445312 14.535156 11.363281 14.550781 11.277344 14.5625 C 10.015625 14.765625 8.367188 14.777344 7.226562 14.117188 C 6.148438 13.203125 5.777344 11.3125 5.632812 10 C 5.378906 4.820312 5.378906 4.820312 6.960938 2.992188 C 7.054688 2.921875 7.148438 2.851562 7.242188 2.777344 C 7.308594 2.714844 7.378906 2.652344 7.449219 2.589844 C 7.816406 2.378906 8.203125 2.296875 8.621094 2.222656 C 8.695312 2.207031 8.769531 2.195312 8.84375 2.179688 C 10.261719 1.972656 12.121094 2.027344 13.21875 3 Z M 11.722656 3.222656 C 11.460938 3.535156 11.460938 3.535156 11.492188 3.890625 C 11.683594 3.851562 11.875 3.816406 12.070312 3.777344 C 12.105469 3.628906 12.144531 3.484375 12.183594 3.332031 C 12.03125 3.296875 11.878906 3.261719 11.722656 3.222656 Z M 7.703125 3.554688 C 7.585938 3.953125 7.585938 3.953125 7.703125 4.332031 C 7.585938 4.296875 7.472656 4.257812 7.355469 4.222656 C 7.433594 4.480469 7.507812 4.734375 7.585938 5 C 7.738281 4.960938 7.890625 4.925781 8.046875 4.886719 C 8.007812 4.632812 7.96875 4.375 7.929688 4.113281 C 8.007812 4.113281 8.082031 4.113281 8.160156 4.113281 C 8.160156 4 8.160156 3.890625 8.160156 3.777344 C 8.046875 3.777344 7.933594 3.777344 7.816406 3.777344 C 7.777344 3.703125 7.742188 3.628906 7.703125 3.554688 Z M 11.035156 4 C 11.070312 4.074219 11.109375 4.144531 11.148438 4.222656 C 11.304688 4.679688 11.328125 4.960938 11.265625 5.445312 C 10.90625 5.753906 10.710938 5.890625 10.230469 5.890625 C 10.25 5.828125 10.265625 5.765625 10.285156 5.703125 C 10.304688 5.621094 10.328125 5.542969 10.351562 5.457031 C 10.375 5.378906 10.398438 5.296875 10.421875 5.214844 C 10.484375 4.992188 10.484375 4.992188 10.34375 4.777344 C 10.117188 4.777344 9.890625 4.777344 9.65625 4.777344 C 9.53125 5.210938 9.550781 5.390625 9.769531 5.777344 C 9.769531 5.925781 9.769531 6.070312 9.769531 6.222656 C 9.671875 6.261719 9.671875 6.261719 9.570312 6.296875 C 9.246094 6.480469 9.070312 6.710938 8.851562 7 C 8.421875 6.839844 8.164062 6.570312 7.859375 6.25 C 7.707031 6.085938 7.707031 6.085938 7.472656 6.109375 C 7.472656 6.257812 7.472656 6.402344 7.472656 6.554688 C 7.574219 6.597656 7.679688 6.636719 7.789062 6.679688 C 8.210938 6.917969 8.378906 7.148438 8.621094 7.554688 C 8.933594 7.375 9.238281 7.195312 9.539062 7 C 9.65625 7.039062 9.765625 7.074219 9.882812 7.113281 C 9.945312 7.566406 9.882812 7.8125 9.617188 8.179688 C 9.28125 8.65625 9.171875 9.128906 9.042969 9.6875 C 8.976562 9.949219 8.902344 10.171875 8.785156 10.417969 C 8.652344 10.707031 8.574219 10.941406 8.507812 11.25 C 8.359375 11.777344 8.359375 11.777344 8.046875 12 C 8.121094 12.148438 8.199219 12.292969 8.277344 12.445312 C 8.570312 12.058594 8.765625 11.730469 8.90625 11.269531 C 9.042969 10.839844 9.242188 10.570312 9.539062 10.222656 C 9.539062 10.074219 9.539062 9.929688 9.539062 9.777344 C 9.9375 10.472656 9.890625 11.003906 9.769531 11.777344 C 10.113281 11.703125 10.113281 11.703125 10.253906 11.488281 C 10.382812 11.109375 10.34375 10.785156 10.308594 10.390625 C 10.296875 10.242188 10.285156 10.097656 10.273438 9.949219 C 10.242188 9.65625 10.203125 9.390625 10.117188 9.109375 C 10.226562 9.035156 10.34375 8.960938 10.460938 8.882812 C 10.773438 8.632812 10.800781 8.589844 10.855469 8.171875 C 10.8125 7.789062 10.8125 7.789062 10.734375 7.464844 C 10.671875 6.964844 10.726562 6.46875 10.921875 6 C 11.144531 5.863281 11.144531 5.863281 11.378906 5.777344 C 11.453125 5.742188 11.53125 5.707031 11.609375 5.667969 C 11.679688 4.773438 11.679688 4.773438 11.265625 4 C 11.1875 4 11.113281 4 11.035156 4 Z M 7.472656 5.222656 C 7.546875 5.441406 7.625 5.664062 7.703125 5.890625 C 7.777344 5.890625 7.851562 5.890625 7.929688 5.890625 C 7.929688 5.707031 7.929688 5.523438 7.929688 5.332031 C 8.007812 5.296875 8.082031 5.261719 8.160156 5.222656 C 7.933594 5.222656 7.707031 5.222656 7.472656 5.222656 Z M 12.644531 6 C 12.5 6.113281 12.5 6.113281 12.515625 6.363281 C 12.519531 6.46875 12.519531 6.570312 12.523438 6.671875 C 12.523438 6.828125 12.523438 6.828125 12.523438 6.984375 C 12.527344 7.0625 12.527344 7.140625 12.527344 7.222656 C 12.414062 7.222656 12.300781 7.222656 12.183594 7.222656 C 12.183594 6.855469 12.183594 6.488281 12.183594 6.109375 C 12.070312 6.109375 11.957031 6.109375 11.839844 6.109375 C 11.816406 6.179688 11.796875 6.246094 11.773438 6.316406 C 11.742188 6.410156 11.710938 6.496094 11.679688 6.589844 C 11.652344 6.679688 11.621094 6.769531 11.59375 6.859375 C 11.492188 7.113281 11.492188 7.113281 11.265625 7.445312 C 11.335938 7.457031 11.410156 7.472656 11.488281 7.488281 C 11.566406 7.507812 11.644531 7.53125 11.722656 7.554688 C 11.761719 7.628906 11.800781 7.703125 11.839844 7.777344 C 12.140625 7.777344 12.445312 7.777344 12.757812 7.777344 C 12.796875 7.667969 12.835938 7.558594 12.875 7.445312 C 12.949219 7.40625 13.023438 7.371094 13.101562 7.332031 C 13.101562 7.078125 13.101562 6.820312 13.101562 6.554688 C 13.066406 6.554688 13.027344 6.554688 12.988281 6.554688 C 12.949219 6.371094 12.914062 6.1875 12.875 6 C 12.796875 6 12.722656 6 12.644531 6 Z M 7.703125 6.890625 C 7.703125 7.109375 7.703125 7.328125 7.703125 7.554688 C 7.738281 7.554688 7.777344 7.554688 7.816406 7.554688 C 7.816406 7.335938 7.816406 7.117188 7.816406 6.890625 C 7.777344 6.890625 7.742188 6.890625 7.703125 6.890625 Z M 6.898438 8.109375 C 6.898438 8.292969 6.898438 8.476562 6.898438 8.667969 C 7.578125 8.667969 8.261719 8.667969 8.964844 8.667969 C 8.964844 8.484375 8.964844 8.300781 8.964844 8.109375 C 8.28125 8.109375 7.601562 8.109375 6.898438 8.109375 Z M 11.148438 8.109375 C 11.148438 8.292969 11.148438 8.476562 11.148438 8.667969 C 11.871094 8.667969 12.589844 8.667969 13.332031 8.667969 C 13.332031 8.484375 13.332031 8.300781 13.332031 8.109375 C 12.613281 8.109375 11.890625 8.109375 11.148438 8.109375 Z M 10.921875 9.109375 C 10.921875 9.660156 10.921875 10.210938 10.921875 10.777344 C 11.070312 10.777344 11.222656 10.777344 11.378906 10.777344 C 11.378906 10.226562 11.378906 9.675781 11.378906 9.109375 C 11.226562 9.109375 11.078125 9.109375 10.921875 9.109375 Z M 11.953125 9.222656 C 11.867188 9.421875 11.867188 9.421875 11.839844 9.667969 C 11.957031 9.882812 11.957031 9.882812 12.148438 10.070312 C 12.207031 10.136719 12.265625 10.199219 12.328125 10.269531 C 12.539062 10.453125 12.730469 10.558594 12.988281 10.667969 C 12.824219 10.292969 12.617188 10.042969 12.296875 9.777344 C 12.222656 9.777344 12.148438 9.777344 12.070312 9.777344 C 12.070312 9.59375 12.070312 9.410156 12.070312 9.222656 C 12.03125 9.222656 11.992188 9.222656 11.953125 9.222656 Z M 12.296875 9.222656 C 12.335938 9.332031 12.375 9.441406 12.414062 9.554688 C 12.453125 9.445312 12.488281 9.335938 12.527344 9.222656 C 12.453125 9.222656 12.375 9.222656 12.296875 9.222656 Z M 12.875 9.222656 C 12.835938 9.441406 12.796875 9.664062 12.757812 9.890625 C 12.871094 9.777344 12.984375 9.667969 13.101562 9.554688 C 13.066406 9.445312 13.027344 9.335938 12.988281 9.222656 C 12.949219 9.222656 12.914062 9.222656 12.875 9.222656 Z M 7.125 9.332031 C 6.921875 9.535156 6.992188 9.828125 6.992188 10.097656 C 6.988281 10.214844 6.984375 10.335938 6.984375 10.457031 C 6.984375 10.800781 6.984375 10.800781 7.242188 11.109375 C 7.527344 11.167969 7.527344 11.167969 7.816406 11.109375 C 8.09375 10.707031 8.0625 10.476562 8.046875 10 C 8.199219 10 8.351562 10 8.507812 10 C 8.46875 9.78125 8.429688 9.558594 8.390625 9.332031 C 8.203125 9.332031 8.011719 9.332031 7.816406 9.332031 C 7.679688 9.601562 7.6875 9.773438 7.695312 10.070312 C 7.695312 10.160156 7.695312 10.25 7.695312 10.34375 C 7.699219 10.414062 7.699219 10.484375 7.703125 10.554688 C 7.585938 10.554688 7.472656 10.554688 7.355469 10.554688 C 7.355469 10.152344 7.355469 9.75 7.355469 9.332031 C 7.28125 9.332031 7.203125 9.332031 7.125 9.332031 Z M 11.839844 10.222656 C 11.96875 10.554688 12.15625 10.757812 12.414062 11 C 12.671875 11.242188 12.855469 11.445312 12.988281 11.777344 C 13.027344 11.667969 13.0625 11.558594 13.101562 11.445312 C 12.953125 11.21875 12.953125 11.21875 12.738281 11 C 12.667969 10.925781 12.597656 10.847656 12.523438 10.769531 C 12.308594 10.566406 12.085938 10.394531 11.839844 10.222656 Z M 10.6875 11.109375 C 10.40625 11.605469 10.40625 11.605469 10.117188 12.109375 C 10.234375 12.25 10.234375 12.25 10.503906 12.25 C 10.804688 12.246094 10.804688 12.246094 11.019531 12.089844 C 11.175781 11.886719 11.175781 11.886719 11.132812 11.605469 C 11.054688 11.296875 11.054688 11.296875 10.6875 11.109375 Z M 12.070312 11.109375 C 11.992188 11.183594 11.917969 11.257812 11.839844 11.332031 C 11.875 11.566406 11.875 11.566406 11.953125 11.777344 C 12.082031 11.570312 12.082031 11.570312 12.183594 11.332031 C 12.144531 11.261719 12.109375 11.1875 12.070312 11.109375 Z M 12.414062 11.445312 C 12.527344 11.890625 12.527344 11.890625 12.527344 11.890625 Z M 9.3125 12.667969 C 9.3125 12.738281 9.3125 12.8125 9.3125 12.890625 C 9.5 12.890625 9.6875 12.890625 9.882812 12.890625 C 9.882812 13.144531 9.882812 13.402344 9.882812 13.667969 C 10 13.667969 10.113281 13.667969 10.230469 13.667969 C 10.230469 13.410156 10.230469 13.152344 10.230469 12.890625 C 10.457031 12.890625 10.683594 12.890625 10.921875 12.890625 C 10.921875 12.816406 10.921875 12.742188 10.921875 12.667969 C 10.34375 12.582031 9.886719 12.542969 9.3125 12.667969 Z M 8.507812 13.222656 C 8.582031 13.367188 8.65625 13.515625 8.734375 13.667969 C 8.960938 13.667969 9.191406 13.667969 9.425781 13.667969 C 9.5 13.519531 9.578125 13.371094 9.65625 13.222656 C 9.277344 13.222656 8.898438 13.222656 8.507812 13.222656 Z M 10.574219 13.222656 C 10.648438 13.367188 10.726562 13.515625 10.804688 13.667969 C 11.078125 13.703125 11.078125 13.703125 11.378906 13.667969 C 11.492188 13.519531 11.605469 13.371094 11.722656 13.222656 C 11.34375 13.222656 10.964844 13.222656 10.574219 13.222656 Z M 10.574219 13.222656 "/>
<path style=" stroke:none;fill-rule:nonzero;fill:rgb(100%,100%,100%);fill-opacity:1;" d="M 0 17.777344 C 6.601562 17.777344 13.199219 17.777344 20 17.777344 C 20 18.769531 20 19.757812 20 20.777344 C 13.398438 20.777344 6.800781 20.777344 0 20.777344 C 0 19.789062 0 18.796875 0 17.777344 Z M 1.839844 18.332031 C 1.839844 18.917969 1.839844 19.507812 1.839844 20.109375 C 2.144531 20.117188 2.144531 20.117188 2.457031 20.125 C 2.570312 20.128906 2.6875 20.128906 2.804688 20.132812 C 3.121094 20.140625 3.121094 20.140625 3.332031 19.886719 C 3.296875 19.628906 3.257812 19.371094 3.21875 19.113281 C 3.269531 18.839844 3.269531 18.839844 3.332031 18.667969 C 3.109375 18.4375 2.9375 18.339844 2.613281 18.3125 C 2.355469 18.3125 2.097656 18.320312 1.839844 18.332031 Z M 4.828125 18.332031 C 4.816406 18.5625 4.804688 18.796875 4.796875 19.027344 C 4.792969 19.15625 4.789062 19.285156 4.78125 19.417969 C 4.796875 19.785156 4.796875 19.785156 5.03125 20.046875 C 5.292969 20.261719 5.292969 20.261719 5.703125 20.214844 C 6.121094 20.148438 6.121094 20.148438 6.320312 19.777344 C 6.351562 19.421875 6.351562 19.421875 6.335938 19.035156 C 6.332031 18.835938 6.332031 18.835938 6.328125 18.636719 C 6.328125 18.535156 6.324219 18.4375 6.320312 18.332031 C 6.207031 18.332031 6.09375 18.332031 5.976562 18.332031 C 5.9375 18.847656 5.902344 19.359375 5.863281 19.886719 C 5.671875 19.886719 5.484375 19.886719 5.289062 19.886719 C 5.25 19.375 5.210938 18.863281 5.171875 18.332031 C 5.058594 18.332031 4.945312 18.332031 4.828125 18.332031 Z M 7.929688 18.332031 C 7.929688 18.917969 7.929688 19.507812 7.929688 20.109375 C 8.046875 20.109375 8.160156 20.109375 8.277344 20.109375 C 8.277344 19.890625 8.277344 19.671875 8.277344 19.445312 C 8.539062 19.445312 8.804688 19.445312 9.078125 19.445312 C 9.078125 19.664062 9.078125 19.882812 9.078125 20.109375 C 9.195312 20.109375 9.308594 20.109375 9.425781 20.109375 C 9.40625 20.003906 9.386719 19.902344 9.367188 19.792969 C 9.296875 19.371094 9.335938 19.078125 9.425781 18.667969 C 9.199219 18.4375 9.03125 18.339844 8.703125 18.3125 C 8.445312 18.3125 8.1875 18.320312 7.929688 18.332031 Z M 11.035156 18.332031 C 11.035156 18.917969 11.035156 19.507812 11.035156 20.109375 C 11.488281 20.109375 11.945312 20.109375 12.414062 20.109375 C 12.414062 20.039062 12.414062 19.964844 12.414062 19.886719 C 12.035156 19.886719 11.65625 19.886719 11.265625 19.886719 C 11.265625 19.707031 11.265625 19.523438 11.265625 19.332031 C 11.605469 19.332031 11.945312 19.332031 12.296875 19.332031 C 12.296875 19.257812 12.296875 19.1875 12.296875 19.113281 C 11.957031 19.113281 11.617188 19.113281 11.265625 19.113281 C 11.265625 18.929688 11.265625 18.742188 11.265625 18.554688 C 11.605469 18.554688 11.945312 18.554688 12.296875 18.554688 C 12.296875 18.480469 12.296875 18.410156 12.296875 18.332031 C 11.882812 18.332031 11.464844 18.332031 11.035156 18.332031 Z M 14.367188 18.332031 C 14.273438 18.546875 14.179688 18.757812 14.085938 18.972656 C 14.035156 19.089844 13.984375 19.210938 13.929688 19.332031 C 13.824219 19.59375 13.738281 19.835938 13.679688 20.109375 C 13.792969 20.109375 13.90625 20.109375 14.023438 20.109375 C 14.023438 20 14.023438 19.890625 14.023438 19.777344 C 14.328125 19.777344 14.628906 19.777344 14.941406 19.777344 C 14.980469 19.886719 15.019531 19.996094 15.058594 20.109375 C 15.132812 20.109375 15.210938 20.109375 15.289062 20.109375 C 15.234375 19.917969 15.183594 19.726562 15.128906 19.535156 C 15.101562 19.425781 15.070312 19.320312 15.039062 19.210938 C 14.949219 18.910156 14.839844 18.621094 14.710938 18.332031 C 14.597656 18.332031 14.484375 18.332031 14.367188 18.332031 Z M 16.667969 18.332031 C 16.65625 18.585938 16.644531 18.835938 16.636719 19.089844 C 16.632812 19.230469 16.625 19.371094 16.621094 19.515625 C 16.628906 19.890625 16.628906 19.890625 16.875 20.105469 C 17.226562 20.269531 17.445312 20.210938 17.816406 20.109375 C 18.085938 19.898438 18.085938 19.898438 18.070312 19.527344 C 18.066406 19.386719 18.0625 19.242188 18.0625 19.097656 C 18.058594 18.953125 18.054688 18.8125 18.054688 18.664062 C 18.050781 18.554688 18.046875 18.445312 18.046875 18.332031 C 17.96875 18.332031 17.894531 18.332031 17.816406 18.332031 C 17.777344 18.808594 17.742188 19.285156 17.703125 19.777344 C 17.511719 19.816406 17.320312 19.851562 17.125 19.886719 C 16.972656 19.589844 16.972656 19.320312 16.945312 18.984375 C 16.9375 18.863281 16.929688 18.742188 16.917969 18.617188 C 16.910156 18.523438 16.902344 18.429688 16.898438 18.332031 C 16.820312 18.332031 16.746094 18.332031 16.667969 18.332031 Z M 16.667969 18.332031 "/>
<path style=" stroke:none;fill-rule:nonzero;fill:rgb(100%,100%,100%);fill-opacity:1;" d="M 0 21.109375 C 6.601562 21.109375 13.199219 21.109375 20 21.109375 C 20 22.066406 20 23.015625 20 24 C 13.398438 24 6.800781 24 0 24 C 0 23.046875 0 22.09375 0 21.109375 Z M 1.722656 21.667969 C 1.914062 22.253906 2.101562 22.839844 2.296875 23.445312 C 2.449219 23.40625 2.601562 23.371094 2.757812 23.332031 C 2.914062 23.035156 2.914062 23.035156 3.015625 22.679688 C 3.074219 22.5 3.074219 22.5 3.132812 22.320312 C 3.234375 22 3.234375 22 3.21875 21.667969 C 3.140625 21.667969 3.066406 21.667969 2.988281 21.667969 C 2.929688 21.824219 2.875 21.980469 2.816406 22.136719 C 2.785156 22.226562 2.75 22.3125 2.71875 22.40625 C 2.625 22.691406 2.625 22.691406 2.644531 23.109375 C 2.566406 23.109375 2.492188 23.109375 2.414062 23.109375 C 2.398438 23.035156 2.382812 22.957031 2.367188 22.878906 C 2.347656 22.78125 2.328125 22.679688 2.304688 22.578125 C 2.285156 22.476562 2.265625 22.378906 2.246094 22.277344 C 2.1875 21.988281 2.1875 21.988281 2.070312 21.667969 C 1.953125 21.667969 1.839844 21.667969 1.722656 21.667969 Z M 4.597656 21.667969 C 4.597656 22.253906 4.597656 22.839844 4.597656 23.445312 C 5.054688 23.445312 5.507812 23.445312 5.976562 23.445312 C 5.976562 23.371094 5.976562 23.296875 5.976562 23.222656 C 5.597656 23.222656 5.21875 23.222656 4.828125 23.222656 C 4.828125 23.039062 4.828125 22.855469 4.828125 22.667969 C 5.132812 22.667969 5.433594 22.667969 5.746094 22.667969 C 5.746094 22.59375 5.746094 22.519531 5.746094 22.445312 C 5.445312 22.445312 5.140625 22.445312 4.828125 22.445312 C 4.828125 22.261719 4.828125 22.078125 4.828125 21.890625 C 5.167969 21.890625 5.511719 21.890625 5.863281 21.890625 C 5.863281 21.816406 5.863281 21.742188 5.863281 21.667969 C 5.445312 21.667969 5.027344 21.667969 4.597656 21.667969 Z M 7.355469 21.667969 C 7.355469 22.253906 7.355469 22.839844 7.355469 23.445312 C 7.433594 23.445312 7.507812 23.445312 7.585938 23.445312 C 7.585938 23.1875 7.585938 22.929688 7.585938 22.667969 C 7.851562 22.742188 8.117188 22.8125 8.390625 22.886719 C 8.429688 23.070312 8.46875 23.257812 8.507812 23.445312 C 8.582031 23.445312 8.65625 23.445312 8.734375 23.445312 C 8.734375 23.339844 8.734375 23.238281 8.734375 23.132812 C 8.734375 22.445312 8.734375 22.445312 8.75 22.160156 C 8.765625 21.867188 8.765625 21.867188 8.507812 21.667969 C 8.226562 21.640625 8.226562 21.640625 7.917969 21.652344 C 7.730469 21.65625 7.546875 21.664062 7.355469 21.667969 Z M 10.230469 21.667969 C 10.230469 22.253906 10.230469 22.839844 10.230469 23.445312 C 10.34375 23.445312 10.457031 23.445312 10.574219 23.445312 C 10.574219 22.859375 10.574219 22.273438 10.574219 21.667969 C 10.460938 21.667969 10.347656 21.667969 10.230469 21.667969 Z M 11.722656 21.667969 C 11.722656 21.738281 11.722656 21.8125 11.722656 21.890625 C 11.914062 21.890625 12.101562 21.890625 12.296875 21.890625 C 12.296875 22.402344 12.296875 22.914062 12.296875 23.445312 C 12.414062 23.445312 12.527344 23.445312 12.644531 23.445312 C 12.644531 22.929688 12.644531 22.417969 12.644531 21.890625 C 12.832031 21.890625 13.023438 21.890625 13.21875 21.890625 C 13.21875 21.816406 13.21875 21.742188 13.21875 21.667969 C 12.726562 21.667969 12.234375 21.667969 11.722656 21.667969 Z M 14.710938 21.667969 C 14.464844 22.253906 14.21875 22.839844 14.023438 23.445312 C 14.136719 23.445312 14.25 23.445312 14.367188 23.445312 C 14.40625 23.371094 14.445312 23.296875 14.484375 23.222656 C 14.75 23.222656 15.015625 23.222656 15.289062 23.222656 C 15.324219 23.296875 15.363281 23.371094 15.402344 23.445312 C 15.515625 23.40625 15.628906 23.371094 15.746094 23.332031 C 15.664062 23.074219 15.578125 22.820312 15.488281 22.5625 C 15.464844 22.488281 15.441406 22.414062 15.417969 22.339844 C 15.335938 22.101562 15.335938 22.101562 15.171875 21.777344 C 14.9375 21.660156 14.9375 21.660156 14.710938 21.667969 Z M 16.902344 21.804688 C 16.765625 21.992188 16.765625 21.992188 16.765625 22.222656 C 16.976562 22.582031 17.3125 22.644531 17.703125 22.777344 C 17.777344 22.777344 17.851562 22.777344 17.929688 22.777344 C 17.929688 22.925781 17.929688 23.070312 17.929688 23.222656 C 17.53125 23.171875 17.164062 23.121094 16.78125 23 C 16.859375 23.148438 16.933594 23.292969 17.011719 23.445312 C 17.617188 23.496094 17.617188 23.496094 18.167969 23.304688 C 18.296875 23.117188 18.296875 23.117188 18.257812 22.890625 C 18.179688 22.648438 18.179688 22.648438 17.921875 22.527344 C 17.78125 22.472656 17.78125 22.472656 17.636719 22.417969 C 17.542969 22.378906 17.445312 22.34375 17.347656 22.304688 C 17.273438 22.277344 17.203125 22.25 17.125 22.222656 C 17.125 22.148438 17.125 22.074219 17.125 22 C 17.511719 21.992188 17.792969 21.992188 18.160156 22.113281 C 18.125 22 18.085938 21.890625 18.046875 21.777344 C 17.660156 21.589844 17.269531 21.574219 16.902344 21.804688 Z M 16.902344 21.804688 "/>
<path style=" stroke:none;fill-rule:nonzero;fill:rgb(100%,100%,100%);fill-opacity:1;" d="M 10.007812 -0.0273438 C 10.140625 -0.03125 10.273438 -0.03125 10.40625 -0.0351562 C 11.84375 -0.0390625 13.078125 0.183594 14.253906 1 C 14.328125 1.050781 14.398438 1.097656 14.476562 1.148438 C 16.101562 2.355469 16.726562 4.796875 17 6.664062 C 17.375 9.433594 16.886719 12.632812 15.1875 14.960938 C 14.230469 16.082031 12.925781 16.628906 11.453125 16.785156 C 11.355469 16.792969 11.257812 16.804688 11.15625 16.8125 C 11.050781 16.820312 10.949219 16.832031 10.839844 16.839844 C 8.945312 16.980469 7.035156 16.75 5.515625 15.554688 C 3.632812 13.925781 3.152344 11.035156 2.957031 8.726562 C 2.882812 6.332031 3.539062 3.4375 5.152344 1.554688 C 6.492188 0.207031 8.164062 -0.0195312 10.007812 -0.0273438 Z M 5.476562 1.863281 C 3.679688 4.199219 3.359375 7.609375 3.757812 10.414062 C 4.019531 11.980469 4.457031 13.640625 5.515625 14.890625 C 5.578125 14.960938 5.632812 15.03125 5.695312 15.101562 C 6.515625 15.988281 7.742188 16.382812 8.949219 16.464844 C 9.3125 16.480469 9.671875 16.480469 10.035156 16.480469 C 10.21875 16.480469 10.21875 16.480469 10.402344 16.484375 C 11.867188 16.484375 13.160156 16.179688 14.273438 15.230469 C 16.019531 13.488281 16.5 10.519531 16.476562 8.167969 C 16.414062 5.964844 15.914062 3.257812 14.347656 1.5625 C 13.121094 0.496094 11.597656 0.289062 10.015625 0.296875 C 9.890625 0.300781 9.769531 0.300781 9.644531 0.300781 C 8.03125 0.324219 6.617188 0.6875 5.476562 1.863281 Z M 5.476562 1.863281 "/>
<path style=" stroke:none;fill-rule:nonzero;fill:rgb(100%,100%,100%);fill-opacity:1;" d="M 14.273438 1.882812 C 14.550781 2.039062 14.679688 2.167969 14.828125 2.445312 C 14.792969 2.75 14.792969 2.75 14.710938 3 C 14.5625 3.035156 14.410156 3.074219 14.253906 3.109375 C 14.253906 3.183594 14.253906 3.257812 14.253906 3.332031 C 14.023438 3.441406 14.023438 3.441406 13.792969 3.554688 C 13.714844 3.277344 13.679688 3.070312 13.679688 2.777344 C 13.527344 2.8125 13.375 2.851562 13.21875 2.890625 C 13.246094 2.507812 13.367188 2.410156 13.65625 2.132812 C 14.023438 1.886719 14.023438 1.886719 14.273438 1.882812 Z M 14.136719 2.332031 C 14.136719 2.445312 14.136719 2.554688 14.136719 2.667969 C 14.214844 2.667969 14.289062 2.667969 14.367188 2.667969 C 14.328125 2.558594 14.292969 2.445312 14.253906 2.332031 C 14.214844 2.332031 14.175781 2.332031 14.136719 2.332031 Z M 14.136719 2.332031 "/>
<path style=" stroke:none;fill-rule:nonzero;fill:rgb(100%,100%,100%);fill-opacity:1;" d="M 12.644531 14.554688 C 12.878906 14.9375 12.996094 15.148438 12.953125 15.597656 C 12.925781 15.695312 12.898438 15.789062 12.875 15.890625 C 12.097656 16.015625 12.097656 16.015625 11.839844 15.890625 C 11.792969 15.636719 11.792969 15.636719 11.765625 15.328125 C 11.757812 15.222656 11.75 15.121094 11.742188 15.015625 C 11.734375 14.9375 11.730469 14.859375 11.722656 14.777344 C 12.09375 14.539062 12.21875 14.53125 12.644531 14.554688 Z M 12.183594 14.890625 C 12.222656 14.960938 12.257812 15.035156 12.296875 15.109375 C 12.335938 15.039062 12.375 14.964844 12.414062 14.890625 C 12.335938 14.890625 12.261719 14.890625 12.183594 14.890625 Z M 12.296875 15.445312 C 12.296875 15.515625 12.296875 15.589844 12.296875 15.667969 C 12.375 15.667969 12.449219 15.667969 12.527344 15.667969 C 12.527344 15.59375 12.527344 15.519531 12.527344 15.445312 C 12.453125 15.445312 12.375 15.445312 12.296875 15.445312 Z M 12.296875 15.445312 "/>
<path style=" stroke:none;fill-rule:nonzero;fill:rgb(100%,100%,100%);fill-opacity:1;" d="M 9.136719 14.875 C 9.539062 14.890625 9.539062 14.890625 9.65625 15 C 9.664062 15.1875 9.664062 15.375 9.664062 15.5625 C 9.660156 15.664062 9.660156 15.765625 9.660156 15.871094 C 9.65625 15.949219 9.65625 16.03125 9.65625 16.113281 C 9.339844 16.234375 9.339844 16.234375 8.964844 16.332031 C 8.710938 16.226562 8.710938 16.226562 8.507812 16.113281 C 8.523438 15.929688 8.539062 15.746094 8.554688 15.5625 C 8.566406 15.460938 8.574219 15.359375 8.585938 15.253906 C 8.644531 14.84375 8.6875 14.890625 9.136719 14.875 Z M 8.964844 15.667969 C 9.003906 15.777344 9.039062 15.886719 9.078125 16 C 9.117188 15.890625 9.15625 15.78125 9.195312 15.667969 C 9.121094 15.667969 9.042969 15.667969 8.964844 15.667969 Z M 8.964844 15.667969 "/>
<path style=" stroke:none;fill-rule:nonzero;fill:rgb(100%,100%,100%);fill-opacity:1;" d="M 4.382812 7.640625 C 4.476562 7.640625 4.566406 7.644531 4.664062 7.644531 C 4.800781 7.648438 4.800781 7.648438 4.945312 7.648438 C 5.171875 7.667969 5.171875 7.667969 5.289062 7.777344 C 5.304688 8.109375 5.292969 8.445312 5.289062 8.777344 C 4.832031 8.777344 4.375 8.777344 3.90625 8.777344 C 3.886719 8.105469 3.886719 8.105469 3.90625 7.886719 C 4.136719 7.667969 4.136719 7.667969 4.382812 7.640625 Z M 4.828125 8 C 4.789062 8.148438 4.75 8.292969 4.710938 8.445312 C 4.789062 8.445312 4.863281 8.445312 4.941406 8.445312 C 4.90625 8.296875 4.867188 8.152344 4.828125 8 Z M 4.253906 8.109375 C 4.253906 8.222656 4.253906 8.332031 4.253906 8.445312 C 4.328125 8.445312 4.40625 8.445312 4.484375 8.445312 C 4.484375 8.335938 4.484375 8.222656 4.484375 8.109375 C 4.40625 8.109375 4.332031 8.109375 4.253906 8.109375 Z M 4.253906 8.109375 "/>
<path style=" stroke:none;fill-rule:nonzero;fill:rgb(100%,100%,100%);fill-opacity:1;" d="M 5.402344 2.222656 C 5.746094 2.332031 5.746094 2.332031 5.863281 2.554688 C 5.976562 2.589844 6.089844 2.628906 6.207031 2.667969 C 6.207031 2.777344 6.207031 2.886719 6.207031 3 C 6.246094 2.925781 6.28125 2.851562 6.320312 2.777344 C 6.4375 2.777344 6.550781 2.777344 6.667969 2.777344 C 6.605469 3.203125 6.496094 3.449219 6.207031 3.777344 C 5.734375 3.617188 5.351562 3.386719 4.941406 3.109375 C 5.09375 2.816406 5.246094 2.523438 5.402344 2.222656 Z M 5.632812 2.667969 C 5.632812 3 5.632812 3 5.632812 3 Z M 5.632812 2.667969 "/>
<path style=" stroke:none;fill-rule:nonzero;fill:rgb(100%,100%,100%);fill-opacity:1;" d="M 4.710938 4 C 4.972656 4.035156 4.972656 4.035156 5.289062 4.113281 C 5.515625 4.148438 5.746094 4.183594 5.976562 4.222656 C 5.9375 4.367188 5.902344 4.515625 5.863281 4.667969 C 5.710938 4.628906 5.558594 4.59375 5.402344 4.554688 C 5.402344 4.628906 5.402344 4.703125 5.402344 4.777344 C 5.515625 4.851562 5.628906 4.925781 5.746094 5 C 5.746094 5.109375 5.746094 5.21875 5.746094 5.332031 C 5.5625 5.296875 5.375 5.261719 5.1875 5.230469 C 5.082031 5.210938 4.976562 5.191406 4.871094 5.167969 C 4.597656 5.109375 4.597656 5.109375 4.367188 5 C 4.453125 4.25 4.453125 4.25 4.710938 4 Z M 4.828125 4.445312 C 4.867188 4.554688 4.902344 4.664062 4.941406 4.777344 C 4.980469 4.667969 5.019531 4.558594 5.058594 4.445312 C 4.980469 4.445312 4.90625 4.445312 4.828125 4.445312 Z M 4.828125 4.445312 "/>
<path style=" stroke:none;fill-rule:nonzero;fill:rgb(100%,100%,100%);fill-opacity:1;" d="M 14.941406 7.667969 C 15.09375 7.703125 15.25 7.742188 15.402344 7.777344 C 15.5 7.757812 15.601562 7.734375 15.703125 7.714844 C 15.792969 7.699219 15.882812 7.683594 15.976562 7.667969 C 16.054688 7.742188 16.128906 7.8125 16.207031 7.886719 C 16.164062 8.292969 16.164062 8.292969 16.09375 8.667969 C 15.625 8.785156 15.300781 8.773438 14.828125 8.667969 C 14.710938 8.554688 14.710938 8.554688 14.691406 8.230469 C 14.710938 7.886719 14.710938 7.886719 14.941406 7.667969 Z M 15.171875 8 C 15.132812 8.109375 15.097656 8.21875 15.058594 8.332031 C 15.132812 8.332031 15.210938 8.332031 15.289062 8.332031 C 15.25 8.222656 15.210938 8.113281 15.171875 8 Z M 15.746094 8 C 15.710938 8.109375 15.671875 8.21875 15.632812 8.332031 C 15.707031 8.332031 15.785156 8.332031 15.863281 8.332031 C 15.824219 8.222656 15.785156 8.113281 15.746094 8 Z M 15.746094 8 "/>
<path style=" stroke:none;fill-rule:nonzero;fill:rgb(100%,100%,100%);fill-opacity:1;" d="M 12.414062 0.777344 C 12.71875 0.886719 13.019531 0.996094 13.332031 1.113281 C 13.332031 1.222656 13.332031 1.332031 13.332031 1.445312 C 13.179688 1.445312 13.03125 1.445312 12.875 1.445312 C 12.988281 1.519531 13.101562 1.589844 13.21875 1.667969 C 13.179688 1.742188 13.140625 1.8125 13.101562 1.886719 C 12.914062 1.886719 12.722656 1.886719 12.527344 1.886719 C 12.679688 1.960938 12.832031 2.035156 12.988281 2.109375 C 12.988281 2.222656 12.988281 2.332031 12.988281 2.445312 C 12.605469 2.382812 12.296875 2.292969 11.953125 2.109375 C 12.015625 1.605469 12.160156 1.226562 12.414062 0.777344 Z M 12.414062 0.777344 "/>
<path style=" stroke:none;fill-rule:nonzero;fill:rgb(100%,100%,100%);fill-opacity:1;" d="M 8.851562 0.554688 C 9 0.59375 9.15625 0.628906 9.3125 0.667969 C 9.339844 0.824219 9.363281 0.984375 9.390625 1.144531 C 9.40625 1.234375 9.417969 1.324219 9.433594 1.414062 C 9.425781 1.667969 9.425781 1.667969 9.277344 1.863281 C 8.988281 2.0625 8.738281 2.023438 8.390625 2 C 8.117188 1.574219 8.097656 1.15625 8.046875 0.667969 C 8.199219 0.667969 8.351562 0.667969 8.507812 0.667969 C 8.527344 0.761719 8.527344 0.761719 8.546875 0.855469 C 8.566406 0.9375 8.585938 1.019531 8.605469 1.105469 C 8.625 1.183594 8.644531 1.265625 8.664062 1.351562 C 8.714844 1.578125 8.714844 1.578125 8.964844 1.667969 C 8.929688 1.300781 8.890625 0.933594 8.851562 0.554688 Z M 8.851562 0.554688 "/>
<path style=" stroke:none;fill-rule:nonzero;fill:rgb(100%,100%,100%);fill-opacity:1;" d="M 4.136719 5.777344 C 4.304688 5.789062 4.46875 5.804688 4.632812 5.820312 C 4.773438 5.832031 4.773438 5.832031 4.914062 5.84375 C 5.171875 5.890625 5.171875 5.890625 5.515625 6.109375 C 5.546875 6.453125 5.5625 6.691406 5.402344 7 C 5.238281 7.003906 5.070312 7.003906 4.90625 7.007812 C 4.769531 7.007812 4.769531 7.007812 4.628906 7.011719 C 4.367188 7 4.367188 7 4.023438 6.890625 C 4.023438 6.777344 4.023438 6.667969 4.023438 6.554688 C 4.363281 6.554688 4.707031 6.554688 5.058594 6.554688 C 5.09375 6.480469 5.132812 6.410156 5.171875 6.332031 C 4.867188 6.296875 4.566406 6.261719 4.253906 6.222656 C 4.214844 6.074219 4.175781 5.929688 4.136719 5.777344 Z M 4.136719 5.777344 "/>
<path style=" stroke:none;fill-rule:nonzero;fill:rgb(100%,100%,100%);fill-opacity:1;" d="M 10.6875 14.875 C 11.035156 14.890625 11.035156 14.890625 11.148438 15 C 11.164062 15.332031 11.164062 15.332031 11.148438 15.667969 C 11.109375 15.703125 11.074219 15.738281 11.035156 15.777344 C 11.109375 15.816406 11.1875 15.851562 11.265625 15.890625 C 11.265625 16 11.265625 16.109375 11.265625 16.222656 C 10.882812 16.257812 10.507812 16.296875 10.117188 16.332031 C 10.164062 15.796875 10.398438 15.574219 10.804688 15.222656 C 10.691406 15.292969 10.578125 15.367188 10.460938 15.445312 C 10.34375 15.445312 10.234375 15.445312 10.117188 15.445312 C 10.242188 14.894531 10.242188 14.894531 10.6875 14.875 Z M 10.6875 14.875 "/>
<path style=" stroke:none;fill-rule:nonzero;fill:rgb(100%,100%,100%);fill-opacity:1;" d="M 6.78125 1.113281 C 7.195312 1.339844 7.578125 1.578125 7.929688 1.886719 C 7.929688 2 7.929688 2.109375 7.929688 2.222656 C 7.664062 2.222656 7.398438 2.222656 7.125 2.222656 C 7.125 2.371094 7.125 2.515625 7.125 2.667969 C 7.011719 2.703125 6.898438 2.738281 6.78125 2.777344 C 6.738281 2.542969 6.695312 2.304688 6.652344 2.070312 C 6.628906 1.9375 6.605469 1.808594 6.578125 1.671875 C 6.570312 1.558594 6.5625 1.449219 6.550781 1.332031 C 6.628906 1.257812 6.703125 1.1875 6.78125 1.113281 Z M 6.78125 1.113281 "/>
<path style=" stroke:none;fill-rule:nonzero;fill:rgb(100%,100%,100%);fill-opacity:1;" d="M 14.597656 6 C 14.78125 6.011719 14.96875 6.027344 15.152344 6.042969 C 15.253906 6.050781 15.355469 6.058594 15.460938 6.066406 C 15.746094 6.109375 15.746094 6.109375 16.09375 6.332031 C 16.09375 6.441406 16.09375 6.554688 16.09375 6.667969 C 15.90625 6.757812 15.71875 6.851562 15.53125 6.945312 C 15.429688 6.996094 15.324219 7.046875 15.21875 7.101562 C 14.941406 7.222656 14.941406 7.222656 14.710938 7.222656 C 14.710938 7.074219 14.710938 6.929688 14.710938 6.777344 C 14.789062 6.777344 14.863281 6.777344 14.941406 6.777344 C 14.90625 6.667969 14.867188 6.558594 14.828125 6.445312 C 14.75 6.410156 14.675781 6.371094 14.597656 6.332031 C 14.597656 6.222656 14.597656 6.113281 14.597656 6 Z M 14.597656 6 "/>
<path style=" stroke:none;fill-rule:nonzero;fill:rgb(100%,100%,100%);fill-opacity:1;" d="M 10.574219 0.554688 C 10.726562 0.59375 10.878906 0.628906 11.035156 0.667969 C 11.070312 0.8125 11.109375 0.960938 11.148438 1.113281 C 11.226562 0.929688 11.300781 0.742188 11.378906 0.554688 C 11.53125 0.628906 11.683594 0.703125 11.839844 0.777344 C 11.648438 1.144531 11.460938 1.511719 11.265625 1.886719 C 11.113281 1.886719 10.960938 1.886719 10.804688 1.886719 C 10.671875 1.414062 10.574219 1.046875 10.574219 0.554688 Z M 10.574219 0.554688 "/>
<path style=" stroke:none;fill-rule:nonzero;fill:rgb(100%,100%,100%);fill-opacity:1;" d="M 15.289062 4.445312 C 15.402344 4.445312 15.515625 4.445312 15.632812 4.445312 C 15.816406 4.835938 15.886719 5.128906 15.863281 5.554688 C 15.75 5.554688 15.632812 5.554688 15.515625 5.554688 C 15.515625 5.445312 15.515625 5.335938 15.515625 5.222656 C 15.414062 5.257812 15.308594 5.296875 15.203125 5.332031 C 14.828125 5.445312 14.828125 5.445312 14.367188 5.445312 C 14.40625 5.296875 14.445312 5.152344 14.484375 5 C 14.882812 4.945312 14.882812 4.945312 15.289062 4.886719 C 15.289062 4.742188 15.289062 4.59375 15.289062 4.445312 Z M 15.289062 4.445312 "/>
<path style=" stroke:none;fill-rule:nonzero;fill:rgb(100%,100%,100%);fill-opacity:1;" d="M 7.355469 14.667969 C 7.621094 14.667969 7.886719 14.667969 8.160156 14.667969 C 8.101562 15.148438 8.023438 15.558594 7.816406 16 C 7.664062 15.964844 7.511719 15.925781 7.355469 15.890625 C 7.433594 15.597656 7.507812 15.300781 7.585938 15 C 7.511719 15 7.433594 15 7.355469 15 C 7.355469 14.890625 7.355469 14.78125 7.355469 14.667969 Z M 7.355469 14.667969 "/>
<path style=" stroke:none;fill-rule:nonzero;fill:rgb(100%,100%,100%);fill-opacity:1;" d="M 15.402344 3.667969 C 15.289062 4 15.289062 4 15.058594 4.128906 C 14.964844 4.167969 14.875 4.207031 14.777344 4.242188 C 14.683594 4.28125 14.59375 4.320312 14.496094 4.359375 C 14.253906 4.445312 14.253906 4.445312 14.023438 4.445312 C 14.023438 4.296875 14.023438 4.152344 14.023438 4 C 14.164062 3.921875 14.308594 3.84375 14.453125 3.769531 C 14.574219 3.707031 14.574219 3.707031 14.695312 3.644531 C 14.984375 3.542969 15.117188 3.570312 15.402344 3.667969 Z M 15.402344 3.667969 "/>
<path style=" stroke:none;fill-rule:nonzero;fill:rgb(100%,100%,100%);fill-opacity:1;" d="M 7.585938 21.890625 C 7.851562 21.890625 8.117188 21.890625 8.390625 21.890625 C 8.429688 22.070312 8.46875 22.253906 8.507812 22.445312 C 8.203125 22.480469 7.898438 22.519531 7.585938 22.554688 C 7.585938 22.335938 7.585938 22.117188 7.585938 21.890625 Z M 7.585938 21.890625 "/>
<path style=" stroke:none;fill-rule:nonzero;fill:rgb(100%,100%,100%);fill-opacity:1;" d="M 8.277344 18.554688 C 8.503906 18.554688 8.730469 18.554688 8.964844 18.554688 C 9.085938 18.761719 9.085938 18.761719 9.195312 19 C 9.15625 19.074219 9.121094 19.144531 9.078125 19.222656 C 8.816406 19.222656 8.550781 19.222656 8.277344 19.222656 C 8.277344 19.003906 8.277344 18.78125 8.277344 18.554688 Z M 8.277344 18.554688 "/>
<path style=" stroke:none;fill-rule:nonzero;fill:rgb(100%,100%,100%);fill-opacity:1;" d="M 2.183594 19.332031 C 2.449219 19.332031 2.714844 19.332031 2.988281 19.332031 C 3.054688 19.546875 3.054688 19.546875 3.101562 19.777344 C 2.988281 19.886719 2.988281 19.886719 2.578125 19.894531 C 2.449219 19.894531 2.320312 19.890625 2.183594 19.886719 C 2.183594 19.707031 2.183594 19.523438 2.183594 19.332031 Z M 2.183594 19.332031 "/>
<path style=" stroke:none;fill-rule:nonzero;fill:rgb(100%,100%,100%);fill-opacity:1;" d="M 2.183594 18.554688 C 2.410156 18.554688 2.640625 18.554688 2.875 18.554688 C 2.910156 18.738281 2.949219 18.921875 2.988281 19.113281 C 2.722656 19.113281 2.457031 19.113281 2.183594 19.113281 C 2.183594 18.929688 2.183594 18.742188 2.183594 18.554688 Z M 2.183594 18.554688 "/>
<path style=" stroke:none;fill-rule:nonzero;fill:rgb(100%,100%,100%);fill-opacity:1;" d="M 14.828125 22 C 14.902344 22.039062 14.980469 22.074219 15.058594 22.113281 C 15.105469 22.367188 15.144531 22.628906 15.171875 22.886719 C 14.984375 22.886719 14.792969 22.886719 14.597656 22.886719 C 14.699219 22.125 14.699219 22.125 14.828125 22 Z M 14.828125 22 "/>
<path style=" stroke:none;fill-rule:nonzero;fill:rgb(100%,100%,100%);fill-opacity:1;" d="M 14.484375 18.667969 C 14.707031 18.992188 14.765625 19.179688 14.828125 19.554688 C 14.601562 19.554688 14.371094 19.554688 14.136719 19.554688 C 14.25 19.261719 14.367188 18.96875 14.484375 18.667969 Z M 14.484375 18.667969 "/>
</g>
</svg>
