<?xml version="1.0" encoding="UTF-8"?>
<svg version="1.1" xmlns="http://www.w3.org/2000/svg" width="174" height="216">
<path d="M0 0 C13.0561861 19.29243498 13.67962864 48.3373693 9.82128906 70.43066406 C5.37375688 92.34393684 5.37375688 92.34393684 -3 99 C-3.55171875 99.50015625 -4.1034375 100.0003125 -4.671875 100.515625 C-7.82623805 102.52679607 -11.05829701 103.07393576 -14.6875 103.6875 C-15.409375 103.8127002 -16.13125 103.93790039 -16.875 104.06689453 C-27.85447645 105.884443 -42.20406576 105.99734459 -52.125 100.0625 C-61.50047584 91.81306042 -64.74827482 74.82053688 -66 63 C-68.20864376 16.3956962 -68.20864376 16.3956962 -54.4375 -0.0625 C-53.633125 -0.701875 -52.82875 -1.34125 -52 -2 C-51.401875 -2.556875 -50.80375 -3.11375 -50.1875 -3.6875 C-46.98383729 -5.60969763 -43.62730768 -6.31621669 -40 -7 C-39.35417969 -7.12503906 -38.70835938 -7.25007813 -38.04296875 -7.37890625 C-25.7134452 -9.24130082 -9.55186296 -8.7661452 0 0 Z M-13 2 C-15.2773501 4.81509993 -15.2773501 4.81509993 -15 8 C-13.35 7.67 -11.7 7.34 -10 7 C-9.67 5.68 -9.34 4.36 -9 3 C-10.32 2.67 -11.64 2.34 -13 2 Z M-48 5 C-49.00217064 8.58327753 -49.00217064 8.58327753 -48 12 C-48.99 11.67 -49.98 11.34 -51 11 C-50.34 13.31 -49.68 15.62 -49 18 C-47.68 17.67 -46.36 17.34 -45 17 C-45.33 14.69 -45.66 12.38 -46 10 C-45.34 10 -44.68 10 -44 10 C-44 9.01 -44 8.02 -44 7 C-44.99 7 -45.98 7 -47 7 C-47.33 6.34 -47.66 5.68 -48 5 Z M-19 9 C-18.67 9.66 -18.34 10.32 -18 11 C-16.6300861 15.10974169 -16.44874889 17.6588975 -17 22 C-20.11783725 24.77141089 -21.79846504 26 -26 26 C-25.84402344 25.44570313 -25.68804687 24.89140625 -25.52734375 24.3203125 C-25.33269531 23.59585938 -25.13804688 22.87140625 -24.9375 22.125 C-24.74027344 21.40570313 -24.54304688 20.68640625 -24.33984375 19.9453125 C-23.78867393 17.92726407 -23.78867393 17.92726407 -25 16 C-26.98 16 -28.96 16 -31 16 C-32.08416595 19.9029974 -31.92020735 21.49844542 -30 25 C-30 26.32 -30 27.64 -30 29 C-30.86625 29.3403125 -30.86625 29.3403125 -31.75 29.6875 C-34.5663661 31.33038023 -36.08077114 33.39533227 -38 36 C-41.74366186 34.56013005 -43.9693114 32.12649698 -46.6328125 29.2421875 C-47.93884003 27.77584591 -47.93884003 27.77584591 -50 28 C-50 29.32 -50 30.64 -50 32 C-49.0925 32.37125 -48.185 32.7425 -47.25 33.125 C-43.54887824 35.26026255 -42.11346343 37.34208252 -40 41 C-37.28775382 39.38731308 -34.62647188 37.75098126 -32 36 C-31.01 36.33 -30.02 36.66 -29 37 C-28.48737002 41.10103988 -29.00568714 43.32363309 -31.3125 46.625 C-34.23463517 50.91354204 -35.2011514 55.153984 -36.31640625 60.17578125 C-36.88922602 62.54234522 -37.5505574 64.54990588 -38.5625 66.75 C-39.72356642 69.37501973 -40.39499266 71.48996653 -41 74.25 C-42.27067669 79.01503759 -42.27067669 79.01503759 -45 81 C-44.34 82.32 -43.68 83.64 -43 85 C-40.42903673 81.54249768 -38.75150709 78.57231347 -37.5 74.4375 C-36.31906795 70.54890607 -34.60179197 68.14009376 -32 65 C-32 63.68 -32 62.36 -32 61 C-28.53494828 67.2370931 -28.95649059 72.04746138 -30 79 C-27.00209375 78.31478027 -27.00209375 78.31478027 -25.79296875 76.40625 C-24.66485637 72.98301244 -25.02013411 70.07884027 -25.3125 66.5 C-25.41175781 65.1903125 -25.51101562 63.880625 -25.61328125 62.53125 C-25.90226137 59.892482 -26.24472728 57.53048639 -27 55 C-26.01 54.319375 -25.02 53.63875 -24 52.9375 C-21.28090451 50.6726534 -21.03773668 50.29650246 -20.5625 46.5625 C-20.92876023 43.10736134 -20.92876023 43.10736134 -21.625 40.1875 C-22.15430311 35.68842354 -21.6819294 31.23146039 -20 27 C-18.04296875 25.765625 -18.04296875 25.765625 -16 25 C-15.34 24.67 -14.68 24.34 -14 24 C-13.39736181 15.94558424 -13.39736181 15.94558424 -17 9 C-17.66 9 -18.32 9 -19 9 Z M-50 20 C-49.34 21.98 -48.68 23.96 -48 26 C-47.34 26 -46.68 26 -46 26 C-46 24.35 -46 22.7 -46 21 C-45.34 20.67 -44.68 20.34 -44 20 C-45.98 20 -47.96 20 -50 20 Z M-5 27 C-6.25949049 28.03406673 -6.25949049 28.03406673 -6.09765625 30.28515625 C-6.08605469 31.20167969 -6.07445312 32.11820313 -6.0625 33.0625 C-6.04896484 34.44115234 -6.04896484 34.44115234 -6.03515625 35.84765625 C-6.02355469 36.55792969 -6.01195312 37.26820312 -6 38 C-6.99 38 -7.98 38 -9 38 C-9 34.7 -9 31.4 -9 28 C-9.99 28 -10.98 28 -12 28 C-12.19335938 28.61488281 -12.38671875 29.22976562 -12.5859375 29.86328125 C-12.84632812 30.67152344 -13.10671875 31.47976562 -13.375 32.3125 C-13.63023438 33.11300781 -13.88546875 33.91351563 -14.1484375 34.73828125 C-15 37 -15 37 -17 40 C-16.360625 40.12375 -15.72125 40.2475 -15.0625 40.375 C-14.381875 40.58125 -13.70125 40.7875 -13 41 C-12.67 41.66 -12.34 42.32 -12 43 C-9.36 43 -6.72 43 -4 43 C-3.67 42.01 -3.34 41.02 -3 40 C-2.34 39.67 -1.68 39.34 -1 39 C-1 36.69 -1 34.38 -1 32 C-1.33 32 -1.66 32 -2 32 C-2.33 30.35 -2.66 28.7 -3 27 C-3.66 27 -4.32 27 -5 27 Z M-48 35 C-48 36.98 -48 38.96 -48 41 C-47.67 41 -47.34 41 -47 41 C-47 39.02 -47 37.04 -47 35 C-47.33 35 -47.66 35 -48 35 Z M-55 46 C-55 47.65 -55 49.3 -55 51 C-49.06 51 -43.12 51 -37 51 C-37 49.35 -37 47.7 -37 46 C-42.94 46 -48.88 46 -55 46 Z M-18 46 C-18 47.65 -18 49.3 -18 51 C-11.73 51 -5.46 51 1 51 C1 49.35 1 47.7 1 46 C-5.27 46 -11.54 46 -18 46 Z M-20 55 C-20 59.95 -20 64.9 -20 70 C-18.68 70 -17.36 70 -16 70 C-16 65.05 -16 60.1 -16 55 C-17.32 55 -18.64 55 -20 55 Z M-11 56 C-11.75363327 57.81216501 -11.75363327 57.81216501 -12 60 C-10.96533939 61.93327294 -10.96533939 61.93327294 -9.3125 63.625 C-8.79300781 64.21539062 -8.27351563 64.80578125 -7.73828125 65.4140625 C-5.9296496 67.06418486 -4.23144954 68.01796774 -2 69 C-3.44077046 65.63820226 -5.24750021 63.40843732 -8 61 C-8.66 61 -9.32 61 -10 61 C-10 59.35 -10 57.7 -10 56 C-10.33 56 -10.66 56 -11 56 Z M-8 56 C-7.67 56.99 -7.34 57.98 -7 59 C-6.67 58.01 -6.34 57.02 -6 56 C-6.66 56 -7.32 56 -8 56 Z M-3 56 C-3.33 57.98 -3.66 59.96 -4 62 C-3.01 61.01 -2.02 60.02 -1 59 C-1.33 58.01 -1.66 57.02 -2 56 C-2.33 56 -2.66 56 -3 56 Z M-53 57 C-54.79904778 58.79904778 -54.17296543 61.45063451 -54.1875 63.875 C-54.20167969 64.94492188 -54.21585938 66.01484375 -54.23046875 67.1171875 C-54.2194778 70.19796434 -54.2194778 70.19796434 -52 73 C-49.5 73.5 -49.5 73.5 -47 73 C-44.5705484 69.3558226 -44.83820425 67.28758728 -45 63 C-43.68 63 -42.36 63 -41 63 C-41.33 61.02 -41.66 59.04 -42 57 C-43.65 57 -45.3 57 -47 57 C-48.20272819 59.40545638 -48.10071472 60.94996953 -48.0625 63.625 C-48.05347656 64.44226563 -48.04445313 65.25953125 -48.03515625 66.1015625 C-48.02355469 66.72804688 -48.01195312 67.35453125 -48 68 C-48.99 68 -49.98 68 -51 68 C-51 64.37 -51 60.74 -51 57 C-51.66 57 -52.32 57 -53 57 Z M-12 65 C-10.85563014 67.97536165 -9.26045765 69.82775533 -7 72 C-4.73954235 74.17224467 -3.14436986 76.02463835 -2 79 C-1.67 78.01 -1.34 77.02 -1 76 C-2.28943899 73.96015881 -2.28943899 73.96015881 -4.1875 72 C-4.79980469 71.319375 -5.41210938 70.63875 -6.04296875 69.9375 C-7.92077226 68.07843705 -9.84767281 66.52715011 -12 65 Z M-22 73 C-24.475 77.455 -24.475 77.455 -27 82 C-25.95296435 83.25676839 -25.95296435 83.25676839 -23.625 83.25 C-21.00304534 83.20007446 -21.00304534 83.20007446 -19.125 81.8125 C-17.75718135 79.99182178 -17.75718135 79.99182178 -18.125 77.4375 C-18.84389168 74.6738389 -18.84389168 74.6738389 -22 73 Z M-10 73 C-10.66 73.66 -11.32 74.32 -12 75 C-11.6814823 77.10820797 -11.6814823 77.10820797 -11 79 C-9.89163577 77.11683841 -9.89163577 77.11683841 -9 75 C-9.33 74.34 -9.66 73.68 -10 73 Z M-7 76 C-6 80 -6 80 -6 80 Z M-34 87 C-34 87.66 -34 88.32 -34 89 C-32.35 89 -30.7 89 -29 89 C-29 91.31 -29 93.62 -29 96 C-28.01 96 -27.02 96 -26 96 C-26 93.69 -26 91.38 -26 89 C-24.02 89 -22.04 89 -20 89 C-20 88.34 -20 87.68 -20 87 C-25.02125926 86.22083908 -28.97703996 85.86983399 -34 87 Z M-41 92 C-40.34 93.32 -39.68 94.64 -39 96 C-37.02 96 -35.04 96 -33 96 C-32.34 94.68 -31.68 93.36 -31 92 C-34.3 92 -37.6 92 -41 92 Z M-23 92 C-22.34 93.32 -21.68 94.64 -21 96 C-18.62625139 96.33425735 -18.62625139 96.33425735 -16 96 C-15.01 94.68 -14.02 93.36 -13 92 C-16.3 92 -19.6 92 -23 92 Z " fill="#FFFFFF" transform="translate(115,27)"/>
<path d="M0 0 C57.42 0 114.84 0 174 0 C174 8.91 174 17.82 174 27 C116.58 27 59.16 27 0 27 C0 18.09 0 9.18 0 0 Z M16 5 C16 10.28 16 15.56 16 21 C18.660625 21.061875 18.660625 21.061875 21.375 21.125 C22.37273438 21.14820313 23.37046875 21.17140625 24.3984375 21.1953125 C27.16262173 21.27216848 27.16262173 21.27216848 29 19 C28.69699525 16.66253478 28.36141955 14.32914823 28 12 C28.4375 9.5625 28.4375 9.5625 29 8 C27.0373772 5.95204577 25.5722693 5.05023362 22.73046875 4.80078125 C20.48602163 4.81138494 18.24229107 4.90107539 16 5 Z M42 5 C41.89167831 7.08218362 41.81426459 9.16599129 41.75 11.25 C41.70359375 12.41015625 41.6571875 13.5703125 41.609375 14.765625 C41.73794678 18.0617484 41.73794678 18.0617484 43.7890625 20.42578125 C46.03994706 22.35827416 46.03994706 22.35827416 49.625 21.9375 C53.25516924 21.3249155 53.25516924 21.3249155 55 18 C55.24246783 14.79620876 55.24246783 14.79620876 55.125 11.3125 C55.09792969 9.54326172 55.09792969 9.54326172 55.0703125 7.73828125 C55.04710937 6.83464844 55.02390625 5.93101562 55 5 C54.01 5 53.02 5 52 5 C51.67 9.62 51.34 14.24 51 19 C49.35 19 47.7 19 46 19 C45.67 14.38 45.34 9.76 45 5 C44.01 5 43.02 5 42 5 Z M69 5 C69 10.28 69 15.56 69 21 C69.99 21 70.98 21 72 21 C72 19.02 72 17.04 72 15 C74.31 15 76.62 15 79 15 C79 16.98 79 18.96 79 21 C79.99 21 80.98 21 82 21 C81.835 20.05125 81.67 19.1025 81.5 18.125 C80.89673631 14.35460197 81.21775538 11.71566195 82 8 C80.0373772 5.95204577 78.5722693 5.05023362 75.73046875 4.80078125 C73.48602163 4.81138494 71.24229107 4.90107539 69 5 Z M96 5 C96 10.28 96 15.56 96 21 C99.96 21 103.92 21 108 21 C108 20.34 108 19.68 108 19 C104.7 19 101.4 19 98 19 C98 17.35 98 15.7 98 14 C100.97 14 103.94 14 107 14 C107 13.34 107 12.68 107 12 C104.03 12 101.06 12 98 12 C98 10.35 98 8.7 98 7 C100.97 7 103.94 7 107 7 C107 6.34 107 5.68 107 5 C103.37 5 99.74 5 96 5 Z M125 5 C124.18395001 6.9151579 123.37229368 8.83218834 122.5625 10.75 C122.11003906 11.81734375 121.65757813 12.8846875 121.19140625 13.984375 C120.26020447 16.3413841 119.5215928 18.52992835 119 21 C119.99 21 120.98 21 122 21 C122 20.01 122 19.02 122 18 C124.64 18 127.28 18 130 18 C130.33 18.99 130.66 19.98 131 21 C131.66 21 132.32 21 133 21 C132.54548816 19.26982492 132.08621143 17.54090123 131.625 15.8125 C131.36976563 14.84957031 131.11453125 13.88664063 130.8515625 12.89453125 C130.05233704 10.17789793 129.0968638 7.60862825 128 5 C127.01 5 126.02 5 125 5 Z M145 5 C144.89205723 7.26979665 144.81443824 9.54105196 144.75 11.8125 C144.70359375 13.07707031 144.6571875 14.34164062 144.609375 15.64453125 C144.66851918 19.03030422 144.66851918 19.03030422 146.8203125 20.9609375 C149.88625441 22.4224797 151.78699113 21.90802425 155 21 C157.35641524 19.08593338 157.35641524 19.08593338 157.1953125 15.7421875 C157.17210937 14.46601563 157.14890625 13.18984375 157.125 11.875 C157.10695312 10.59367188 157.08890625 9.31234375 157.0703125 7.9921875 C157.04710937 7.00476563 157.02390625 6.01734375 157 5 C156.34 5 155.68 5 155 5 C154.67 9.29 154.34 13.58 154 18 C152.35 18.33 150.7 18.66 149 19 C147.64908472 16.29816945 147.66141942 13.88191794 147.4375 10.875 C147.35371094 9.77929688 147.26992187 8.68359375 147.18359375 7.5546875 C147.12300781 6.71164063 147.06242188 5.86859375 147 5 C146.34 5 145.68 5 145 5 Z " fill="#FFFFFF" transform="translate(0,160)"/>
<path d="M0 0 C57.42 0 114.84 0 174 0 C174 8.58 174 17.16 174 26 C116.58 26 59.16 26 0 26 C0 17.42 0 8.84 0 0 Z M15 5 C16.65 10.28 18.3 15.56 20 21 C21.32 20.67 22.64 20.34 24 20 C25.37241668 17.33598502 25.37241668 17.33598502 26.25 14.125 C26.75273437 12.52011719 26.75273437 12.52011719 27.265625 10.8828125 C28.12342932 8.01128768 28.12342932 8.01128768 28 5 C27.34 5 26.68 5 26 5 C25.49242138 6.41396902 24.99425075 7.83131729 24.5 9.25 C24.2215625 10.03890625 23.943125 10.8278125 23.65625 11.640625 C22.82135139 14.23412738 22.82135139 14.23412738 23 18 C22.34 18 21.68 18 21 18 C20.86722656 17.31292969 20.73445313 16.62585938 20.59765625 15.91796875 C20.42105469 15.01691406 20.24445312 14.11585938 20.0625 13.1875 C19.88847656 12.29417969 19.71445312 11.40085938 19.53515625 10.48046875 C19.02258847 7.88602829 19.02258847 7.88602829 18 5 C17.01 5 16.02 5 15 5 Z M40 5 C40 10.28 40 15.56 40 21 C43.96 21 47.92 21 52 21 C52 20.34 52 19.68 52 19 C48.7 19 45.4 19 42 19 C42 17.35 42 15.7 42 14 C44.64 14 47.28 14 50 14 C50 13.34 50 12.68 50 12 C47.36 12 44.72 12 42 12 C42 10.35 42 8.7 42 7 C44.97 7 47.94 7 51 7 C51 6.34 51 5.68 51 5 C47.37 5 43.74 5 40 5 Z M64 5 C64 10.28 64 15.56 64 21 C64.66 21 65.32 21 66 21 C66 18.69 66 16.38 66 14 C68.31 14.66 70.62 15.32 73 16 C73.33 17.65 73.66 19.3 74 21 C74.66 21 75.32 21 76 21 C76 20.071875 76 19.14375 76 18.1875 C76 12 76 12 76.125 9.4375 C76.26349674 6.81685373 76.26349674 6.81685373 74 5 C71.55987051 4.75712511 71.55987051 4.75712511 68.875 4.875 C67.26625 4.91625 65.6575 4.9575 64 5 Z M89 5 C89 10.28 89 15.56 89 21 C89.99 21 90.98 21 92 21 C92 15.72 92 10.44 92 5 C91.01 5 90.02 5 89 5 Z M102 5 C102 5.66 102 6.32 102 7 C103.65 7 105.3 7 107 7 C107 11.62 107 16.24 107 21 C107.99 21 108.98 21 110 21 C110 16.38 110 11.76 110 7 C111.65 7 113.3 7 115 7 C115 6.34 115 5.68 115 5 C110.71 5 106.42 5 102 5 Z M128 5 C125.84705349 10.28830549 123.72066106 15.55123997 122 21 C122.99 21 123.98 21 125 21 C125.33 20.34 125.66 19.68 126 19 C128.31 19 130.62 19 133 19 C133.33 19.66 133.66 20.32 134 21 C134.99 20.67 135.98 20.34 137 20 C136.26945795 17.67963077 135.51717043 15.37074085 134.75 13.0625 C134.54503906 12.40314453 134.34007812 11.74378906 134.12890625 11.06445312 C133.44027421 8.91224808 133.44027421 8.91224808 132 6 C129.9427445 4.9499957 129.9427445 4.9499957 128 5 Z M147.0625 6.25 C145.84795417 7.94493422 145.84795417 7.94493422 145.875 10 C147.70355543 13.25076521 150.60086636 13.80732153 154 15 C154.66 15 155.32 15 156 15 C156 16.32 156 17.64 156 19 C152.53058454 18.54177532 149.32604951 18.10868317 146 17 C146.66 18.32 147.32 19.64 148 21 C153.28513335 21.46312039 153.28513335 21.46312039 158.0625 19.75 C159.18161311 18.03970063 159.18161311 18.03970063 158.84375 16.03125 C158.15768671 13.81849958 158.15768671 13.81849958 155.93359375 12.734375 C154.69802734 12.24710938 154.69802734 12.24710938 153.4375 11.75 C152.61121094 11.41484375 151.78492188 11.0796875 150.93359375 10.734375 C150.29550781 10.49203125 149.65742188 10.2496875 149 10 C149 9.34 149 8.68 149 8 C152.34252724 7.92572162 154.8035914 7.93453047 158 9 C157.67 8.01 157.34 7.02 157 6 C153.63571016 4.31785508 150.25834414 4.18816507 147.0625 6.25 Z " fill="#FFFFFF" transform="translate(0,190)"/>
<path d="M0 0 C1.15177734 -0.020625 2.30355469 -0.04125 3.49023438 -0.0625 C15.97015405 -0.11849515 26.69694884 1.89130306 36.9375 9.25 C37.57300781 9.69085938 38.20851563 10.13171875 38.86328125 10.5859375 C53.0201836 21.44688698 58.46217295 43.42062481 60.85180664 60.22167969 C64.10922703 85.15157088 59.8545182 113.95089088 45.0625 134.90625 C36.7393013 144.97463552 25.38329741 149.91372558 12.59326172 151.32763672 C11.73748535 151.4051416 10.88170898 151.48264648 10 151.5625 C9.09266113 151.64516113 8.18532227 151.72782227 7.25048828 151.81298828 C-9.25508323 153.07600831 -25.85324418 150.99821576 -39.0625 140.25 C-55.45848003 125.56908064 -59.63436782 99.56365726 -61.34765625 78.79296875 C-61.98421141 57.23312221 -56.27340192 31.18551966 -42.25 14.25 C-30.57741943 2.12674064 -16.04862217 0.07019627 0 0 Z M-39.40625 17.0234375 C-55.05502703 38.06070851 -57.81996623 68.74898884 -54.37109375 93.95703125 C-52.08276216 108.0546752 -48.28078062 123.00649107 -39.0625 134.25 C-38.55203125 134.88292969 -38.0415625 135.51585937 -37.515625 136.16796875 C-30.36464447 144.15323034 -19.68552724 147.70614627 -9.19140625 148.45483398 C-6.04166401 148.5537669 -2.90121265 148.57205492 0.25 148.5625 C1.8268457 148.58666992 1.8268457 148.58666992 3.43554688 148.61132812 C16.16284823 148.61915068 27.44003888 145.8772201 37.125 137.31640625 C52.31427824 121.63807928 56.47160231 94.9310455 56.29077148 73.76977539 C55.75745569 53.91857627 51.40604495 29.56341152 37.75 14.3125 C27.07851871 4.69381058 13.84513507 2.86079588 0.0625 2.9375 C-0.99598145 2.94313965 -2.05446289 2.9487793 -3.14501953 2.95458984 C-17.1961557 3.17336042 -29.50661298 6.42335447 -39.40625 17.0234375 Z " fill="#FFFFFF" transform="translate(87.0625,-0.25)"/>
<path d="M0 0 C2.40156158 1.40781196 3.50858357 2.5919215 4.8125 5.0625 C4.5 7.8125 4.5 7.8125 3.8125 10.0625 C2.4925 10.3925 1.1725 10.7225 -0.1875 11.0625 C-0.1875 11.7225 -0.1875 12.3825 -0.1875 13.0625 C-2.1675 14.0525 -2.1675 14.0525 -4.1875 15.0625 C-4.87457555 12.57185112 -5.1875 10.68363708 -5.1875 8.0625 C-6.5075 8.3925 -7.8275 8.7225 -9.1875 9.0625 C-8.93408809 5.64143924 -7.87967816 4.75467816 -5.375 2.25 C-2.1875 0.0625 -2.1875 0.0625 0 0 Z M-1.1875 4.0625 C-1.1875 5.0525 -1.1875 6.0425 -1.1875 7.0625 C-0.5275 7.0625 0.1325 7.0625 0.8125 7.0625 C0.4825 6.0725 0.1525 5.0825 -0.1875 4.0625 C-0.5175 4.0625 -0.8475 4.0625 -1.1875 4.0625 Z " fill="#FFFFFF" transform="translate(124.1875,16.9375)"/>
<path d="M0 0 C2.05257931 3.44833324 3.0632763 5.31661591 2.6875 9.375 C2.460625 10.24125 2.23375 11.1075 2 12 C-4.75 13.125 -4.75 13.125 -7 12 C-7.4140625 9.71484375 -7.4140625 9.71484375 -7.625 6.9375 C-7.69976562 6.01839844 -7.77453125 5.09929687 -7.8515625 4.15234375 C-7.90054688 3.44207031 -7.94953125 2.73179687 -8 2 C-4.77208445 -0.1519437 -3.71599191 -0.20086443 0 0 Z M-4 3 C-3.67 3.66 -3.34 4.32 -3 5 C-2.67 4.34 -2.34 3.68 -2 3 C-2.66 3 -3.32 3 -4 3 Z M-3 8 C-3 8.66 -3 9.32 -3 10 C-2.34 10 -1.68 10 -1 10 C-1 9.34 -1 8.68 -1 8 C-1.66 8 -2.32 8 -3 8 Z " fill="#FFFFFF" transform="translate(110,131)"/>
<path d="M0 0 C3.5 0.125 3.5 0.125 4.5 1.125 C4.57205511 2.81108966 4.58386068 4.50000659 4.5625 6.1875 C4.55347656 7.10660156 4.54445313 8.02570313 4.53515625 8.97265625 C4.52355469 9.68292969 4.51195313 10.39320313 4.5 11.125 C1.75 12.25 1.75 12.25 -1.5 13.125 C-3.703125 12.1796875 -3.703125 12.1796875 -5.5 11.125 C-5.35957123 9.47869672 -5.21250671 7.83295821 -5.0625 6.1875 C-4.98128906 5.27097656 -4.90007812 4.35445312 -4.81640625 3.41015625 C-4.30318301 -0.29645603 -3.93512298 0.14054011 0 0 Z M-1.5 7.125 C-1.17 8.115 -0.84 9.105 -0.5 10.125 C-0.17 9.135 0.16 8.145 0.5 7.125 C-0.16 7.125 -0.82 7.125 -1.5 7.125 Z " fill="#FFFFFF" transform="translate(79.5,133.875)"/>
<path d="M0 0 C0.80308594 0.01417969 1.60617188 0.02835937 2.43359375 0.04296875 C3.64208984 0.05263672 3.64208984 0.05263672 4.875 0.0625 C6.87109375 0.23046875 6.87109375 0.23046875 7.87109375 1.23046875 C8.01302712 4.23377893 7.91345753 7.22264009 7.87109375 10.23046875 C3.91109375 10.23046875 -0.04890625 10.23046875 -4.12890625 10.23046875 C-4.32421875 4.17578125 -4.32421875 4.17578125 -4.12890625 2.23046875 C-2.12890625 0.23046875 -2.12890625 0.23046875 0 0 Z M3.87109375 3.23046875 C3.54109375 4.55046875 3.21109375 5.87046875 2.87109375 7.23046875 C3.53109375 7.23046875 4.19109375 7.23046875 4.87109375 7.23046875 C4.54109375 5.91046875 4.21109375 4.59046875 3.87109375 3.23046875 Z M-1.12890625 4.23046875 C-1.12890625 5.22046875 -1.12890625 6.21046875 -1.12890625 7.23046875 C-0.46890625 7.23046875 0.19109375 7.23046875 0.87109375 7.23046875 C0.87109375 6.24046875 0.87109375 5.25046875 0.87109375 4.23046875 C0.21109375 4.23046875 -0.44890625 4.23046875 -1.12890625 4.23046875 Z " fill="#FFFFFF" transform="translate(38.12890625,68.76953125)"/>
<path d="M0 0 C3 1 3 1 4 3 C4.99 3.33 5.98 3.66 7 4 C7 4.99 7 5.98 7 7 C7.33 6.34 7.66 5.68 8 5 C8.99 5 9.98 5 11 5 C10.46930939 8.82097239 9.50298434 11.06171403 7 14 C2.89041233 12.54955729 -0.43258745 10.48889248 -4 8 C-2.68 5.36 -1.36 2.72 0 0 Z M2 4 C2 7 2 7 2 7 Z " fill="#FFFFFF" transform="translate(47,20)"/>
<path d="M0 0 C2.25 0.3125 2.25 0.3125 5 1 C6.99897128 1.33944795 8.99875639 1.67421616 11 2 C10.67 3.32 10.34 4.64 10 6 C8.68 5.67 7.36 5.34 6 5 C6 5.66 6 6.32 6 7 C6.99 7.66 7.98 8.32 9 9 C9 9.99 9 10.98 9 12 C7.3743193 11.69106068 5.74947252 11.3777305 4.125 11.0625 C3.22007813 10.88847656 2.31515625 10.71445312 1.3828125 10.53515625 C-1 10 -1 10 -3 9 C-2.25 2.25 -2.25 2.25 0 0 Z M1 4 C1.33 4.99 1.66 5.98 2 7 C2.33 6.01 2.66 5.02 3 4 C2.34 4 1.68 4 1 4 Z " fill="#FFFFFF" transform="translate(41,36)"/>
<path d="M0 0 C1.33599921 0.32248257 2.66893378 0.65772583 4 1 C4.86625 0.814375 5.7325 0.62875 6.625 0.4375 C7.40875 0.293125 8.1925 0.14875 9 0 C9.66 0.66 10.32 1.32 11 2 C10.625 5.625 10.625 5.625 10 9 C5.92306087 10.08718377 3.12994007 9.95306309 -1 9 C-2 8 -2 8 -2.1875 5.0625 C-2 2 -2 2 0 0 Z M2 3 C1.67 3.99 1.34 4.98 1 6 C1.66 6 2.32 6 3 6 C2.67 5.01 2.34 4.02 2 3 Z M7 3 C6.67 3.99 6.34 4.98 6 6 C6.66 6 7.32 6 8 6 C7.67 5.01 7.34 4.02 7 3 Z " fill="#FFFFFF" transform="translate(130,69)"/>
<path d="M0 0 C2.64 0.99 5.28 1.98 8 3 C8 3.99 8 4.98 8 6 C6.68 6 5.36 6 4 6 C4.99 6.66 5.98 7.32 7 8 C6.67 8.66 6.34 9.32 6 10 C4.35 10 2.7 10 1 10 C2.32 10.66 3.64 11.32 5 12 C5 12.99 5 13.98 5 15 C1.65626525 14.44271087 -1.03312999 13.64826111 -4 12 C-3.45660208 7.43545749 -2.20536179 4.0271824 0 0 Z " fill="#FFFFFF" transform="translate(108,7)"/>
<path d="M0 0 C1.32 0.33 2.64 0.66 4 1 C4.24954005 2.43410368 4.47392642 3.87260072 4.6875 5.3125 C4.81511719 6.11300781 4.94273438 6.91351563 5.07421875 7.73828125 C5 10 5 10 3.71875 11.78125 C1.18675458 13.57666493 -0.9845464 13.20103024 -4 13 C-6.39073445 9.17482487 -6.55966552 5.40334476 -7 1 C-5.68 1 -4.36 1 -3 1 C-2.81824219 1.84884766 -2.81824219 1.84884766 -2.6328125 2.71484375 C-2.46523437 3.44832031 -2.29765625 4.18179687 -2.125 4.9375 C-1.96257812 5.66839844 -1.80015625 6.39929688 -1.6328125 7.15234375 C-1.17038477 9.20700294 -1.17038477 9.20700294 1 10 C0.67 6.7 0.34 3.4 0 0 Z " fill="#FFFFFF" transform="translate(77,5)"/>
<path d="M0 0 C1.43836751 0.11458693 2.87570966 0.24209116 4.3125 0.375 C5.51326172 0.47941406 5.51326172 0.47941406 6.73828125 0.5859375 C9 1 9 1 12 3 C12.25660094 6.07921132 12.39431504 8.21136993 11 11 C9.56260487 11.02712066 8.12506137 11.04645067 6.6875 11.0625 C5.48673828 11.07990234 5.48673828 11.07990234 4.26171875 11.09765625 C2 11 2 11 -1 10 C-1 9.01 -1 8.02 -1 7 C1.97 7 4.94 7 8 7 C8.33 6.34 8.66 5.68 9 5 C6.36 4.67 3.72 4.34 1 4 C0.67 2.68 0.34 1.36 0 0 Z " fill="#FFFFFF" transform="translate(36,52)"/>
<path d="M0 0 C3 0.125 3 0.125 4 1.125 C4.125 4.125 4.125 4.125 4 7.125 C3.67 7.455 3.34 7.785 3 8.125 C3.66 8.455 4.32 8.785 5 9.125 C5 10.115 5 11.105 5 12.125 C1.7 12.455 -1.6 12.785 -5 13.125 C-4.58578031 8.29243695 -2.53586014 6.29820782 1 3.125 C0.01 3.785 -0.98 4.445 -2 5.125 C-2.99 5.125 -3.98 5.125 -5 5.125 C-3.87924016 0.16163501 -3.87924016 0.16163501 0 0 Z " fill="#FFFFFF" transform="translate(93,133.875)"/>
<path d="M0 0 C3.60146869 2.05798211 6.93204301 4.19501075 10 7 C10 7.99 10 8.98 10 10 C7.69 10 5.38 10 3 10 C3 11.32 3 12.64 3 14 C2.01 14.33 1.02 14.66 0 15 C-0.38863565 12.87745145 -0.76053209 10.75183172 -1.125 8.625 C-1.33382812 7.44164062 -1.54265625 6.25828125 -1.7578125 5.0390625 C-1.83773437 4.03617188 -1.91765625 3.03328125 -2 2 C-1.34 1.34 -0.68 0.68 0 0 Z " fill="#FFFFFF" transform="translate(59,10)"/>
<path d="M0 0 C1.60495567 0.11442461 3.20898119 0.24194694 4.8125 0.375 C5.70582031 0.44460937 6.59914062 0.51421875 7.51953125 0.5859375 C10 1 10 1 13 3 C13 3.99 13 4.98 13 6 C11.37750059 6.83819158 9.75191503 7.6704116 8.125 8.5 C7.22007812 8.9640625 6.31515625 9.428125 5.3828125 9.90625 C3 11 3 11 1 11 C1 9.68 1 8.36 1 7 C1.66 7 2.32 7 3 7 C2.67 6.01 2.34 5.02 2 4 C1.34 3.67 0.68 3.34 0 3 C0 2.01 0 1.02 0 0 Z " fill="#FFFFFF" transform="translate(127,54)"/>
<path d="M0 0 C1.32 0.33 2.64 0.66 4 1 C4.33 2.32 4.66 3.64 5 5 C5.66 3.35 6.32 1.7 7 0 C8.32 0.66 9.64 1.32 11 2 C9.35 5.3 7.7 8.6 6 12 C4.68 12 3.36 12 2 12 C0.86235649 7.73383684 0 4.43513689 0 0 Z " fill="#FFFFFF" transform="translate(92,5)"/>
<path d="M0 0 C0.99 0 1.98 0 3 0 C4.60355101 3.50776784 5.22036864 6.14354879 5 10 C4.01 10 3.02 10 2 10 C2 9.01 2 8.02 2 7 C1.0925 7.33 0.185 7.66 -0.75 8 C-4 9 -4 9 -8 9 C-7.67 7.68 -7.34 6.36 -7 5 C-3.535 4.505 -3.535 4.505 0 4 C0 2.68 0 1.36 0 0 Z " fill="#FFFFFF" transform="translate(133,40)"/>
<path d="M0 0 C2.31 0 4.62 0 7 0 C6.49202991 4.3177458 5.80317221 8.03302114 4 12 C2.68 11.67 1.36 11.34 0 11 C0.66 8.36 1.32 5.72 2 3 C1.34 3 0.68 3 0 3 C0 2.01 0 1.02 0 0 Z " fill="#FFFFFF" transform="translate(64,132)"/>
<path d="M0 0 C-1 3 -1 3 -2.99609375 4.16796875 C-3.80175781 4.50441406 -4.60742188 4.84085938 -5.4375 5.1875 C-6.24058594 5.53167969 -7.04367188 5.87585937 -7.87109375 6.23046875 C-10 7 -10 7 -12 7 C-12 5.68 -12 4.36 -12 3 C-10.75823305 2.29773859 -9.50614401 1.61370891 -8.25 0.9375 C-7.20585938 0.36322266 -7.20585938 0.36322266 -6.140625 -0.22265625 C-3.63859372 -1.1312406 -2.4667645 -0.88336837 0 0 Z " fill="#FFFFFF" transform="translate(134,33)"/>
<path d="M0 0 C2.31 0 4.62 0 7 0 C7.33 1.65 7.66 3.3 8 5 C5.36 5.33 2.72 5.66 0 6 C0 4.02 0 2.04 0 0 Z " fill="#FFFFFF" transform="translate(66,197)"/>
<path d="M0 0 C1.98 0 3.96 0 6 0 C7.0625 1.875 7.0625 1.875 8 4 C7.67 4.66 7.34 5.32 7 6 C4.69 6 2.38 6 0 6 C0 4.02 0 2.04 0 0 Z " fill="#FFFFFF" transform="translate(72,167)"/>
<path d="M0 0 C2.31 0 4.62 0 7 0 C7.5625 1.9375 7.5625 1.9375 8 4 C7 5 7 5 3.4375 5.0625 C2.303125 5.041875 1.16875 5.02125 0 5 C0 3.35 0 1.7 0 0 Z " fill="#FFFFFF" transform="translate(19,174)"/>
<path d="M0 0 C1.98 0 3.96 0 6 0 C6.33 1.65 6.66 3.3 7 5 C4.69 5 2.38 5 0 5 C0 3.35 0 1.7 0 0 Z " fill="#FFFFFF" transform="translate(19,167)"/>
<path d="M0 0 C0.66 0.33 1.32 0.66 2 1 C2.40729228 3.32156597 2.74438677 5.6568787 3 8 C1.35 8 -0.3 8 -2 8 C-1.125 1.125 -1.125 1.125 0 0 Z " fill="#FFFFFF" transform="translate(129,198)"/>
<path d="M0 0 C1.9451 2.91765 2.45276317 4.62537285 3 8 C1.02 8 -0.96 8 -3 8 C-2.01 5.36 -1.02 2.72 0 0 Z " fill="#FFFFFF" transform="translate(126,168)"/>
</svg>
